
<svg width="17" height="16" viewBox="0 0 17 16" fill="none" xmlns="http://www.w3.org/2000/svg">
    <rect width="16" height="16" transform="translate(0.90625)" fill="white" fill-opacity="0.01"/>
    <g clip-path="url(#clip0_2983_66964)">
        <rect width="14" height="14" transform="translate(1.90625 1)" fill="white" fill-opacity="0.01"/>
        <g clip-path="url(#clip1_2983_66964)">
            <path d="M11.4035 7.25193C11.4442 7.29257 11.4766 7.34084 11.4986 7.394C11.5207 7.44715 11.532 7.50413 11.532 7.56168C11.532 7.61922 11.5207 7.6762 11.4986 7.72936C11.4766 7.78251 11.4442 7.83079 11.4035 7.87143L8.7785 10.4964C8.73786 10.5372 8.68958 10.5695 8.63643 10.5915C8.58328 10.6136 8.5263 10.625 8.46875 10.625C8.4112 10.625 8.35422 10.6136 8.30107 10.5915C8.24792 10.5695 8.19964 10.5372 8.159 10.4964L6.8465 9.18393C6.80582 9.14325 6.77356 9.09496 6.75154 9.04181C6.72953 8.98866 6.7182 8.9317 6.7182 8.87418C6.7182 8.81665 6.72953 8.75969 6.75154 8.70654C6.77356 8.65339 6.80582 8.6051 6.8465 8.56443C6.92865 8.48228 7.04007 8.43612 7.15625 8.43612C7.21378 8.43612 7.27074 8.44745 7.32389 8.46947C7.37703 8.49148 7.42532 8.52375 7.466 8.56443L8.46875 9.56805L10.784 7.25193C10.8246 7.21118 10.8729 7.17886 10.9261 7.1568C10.9792 7.13475 11.0362 7.12339 11.0938 7.12339C11.1513 7.12339 11.2083 7.13475 11.2614 7.1568C11.3146 7.17886 11.3629 7.21118 11.4035 7.25193Z" fill="#757575"/>
            <path d="M4.96875 0.999176C5.08478 0.999176 5.19606 1.04527 5.27811 1.12732C5.36016 1.20936 5.40625 1.32064 5.40625 1.43668V1.87418H12.4062V1.43668C12.4062 1.32064 12.4523 1.20936 12.5344 1.12732C12.6164 1.04527 12.7277 0.999176 12.8438 0.999176C12.9598 0.999176 13.0711 1.04527 13.1531 1.12732C13.2352 1.20936 13.2812 1.32064 13.2812 1.43668V1.87418H14.1562C14.6204 1.87418 15.0655 2.05855 15.3937 2.38674C15.7219 2.71493 15.9062 3.16005 15.9062 3.62418V13.2492C15.9062 13.7133 15.7219 14.1584 15.3937 14.4866C15.0655 14.8148 14.6204 14.9992 14.1562 14.9992H3.65625C3.19212 14.9992 2.747 14.8148 2.41881 14.4866C2.09062 14.1584 1.90625 13.7133 1.90625 13.2492V3.62418C1.90625 3.16005 2.09062 2.71493 2.41881 2.38674C2.747 2.05855 3.19212 1.87418 3.65625 1.87418H4.53125V1.43668C4.53125 1.32064 4.57734 1.20936 4.65939 1.12732C4.74144 1.04527 4.85272 0.999176 4.96875 0.999176ZM2.78125 4.49918V13.2492C2.78125 13.4812 2.87344 13.7038 3.03753 13.8679C3.20163 14.032 3.42419 14.1242 3.65625 14.1242H14.1562C14.3883 14.1242 14.6109 14.032 14.775 13.8679C14.9391 13.7038 15.0312 13.4812 15.0312 13.2492V4.49918H2.78125Z" fill="#757575"/>
        </g>
    </g>
    <defs>
        <clipPath id="clip0_2983_66964">
            <rect width="14" height="14" fill="white" transform="translate(1.90625 1)"/>
        </clipPath>
        <clipPath id="clip1_2983_66964">
            <rect width="14" height="14" fill="white" transform="translate(1.90625 1)"/>
        </clipPath>
    </defs>
</svg>
