<svg width="16" height="16" viewBox="0 0 16 16" fill="none" xmlns="http://www.w3.org/2000/svg">
<path d="M3.875 1C3.11589 1 2.5 1.58789 2.5 2.3125V13.6875C2.5 14.4121 3.11589 15 3.875 15H6.625V12.8125C6.625 12.0879 7.24089 11.5 8 11.5C8.75911 11.5 9.375 12.0879 9.375 12.8125V15H12.125C12.8841 15 13.5 14.4121 13.5 13.6875V2.3125C13.5 1.58789 12.8841 1 12.125 1H3.875ZM4.33333 7.5625C4.33333 7.32188 4.53958 7.125 4.79167 7.125H5.70833C5.96042 7.125 6.16667 7.32188 6.16667 7.5625V8.4375C6.16667 8.67812 5.96042 8.875 5.70833 8.875H4.79167C4.53958 8.875 4.33333 8.67812 4.33333 8.4375V7.5625ZM7.54167 7.125H8.45833C8.71042 7.125 8.91667 7.32188 8.91667 7.5625V8.4375C8.91667 8.67812 8.71042 8.875 8.45833 8.875H7.54167C7.28958 8.875 7.08333 8.67812 7.08333 8.4375V7.5625C7.08333 7.32188 7.28958 7.125 7.54167 7.125ZM9.83333 7.5625C9.83333 7.32188 10.0396 7.125 10.2917 7.125H11.2083C11.4604 7.125 11.6667 7.32188 11.6667 7.5625V8.4375C11.6667 8.67812 11.4604 8.875 11.2083 8.875H10.2917C10.0396 8.875 9.83333 8.67812 9.83333 8.4375V7.5625ZM4.79167 3.625H5.70833C5.96042 3.625 6.16667 3.82188 6.16667 4.0625V4.9375C6.16667 5.17812 5.96042 5.375 5.70833 5.375H4.79167C4.53958 5.375 4.33333 5.17812 4.33333 4.9375V4.0625C4.33333 3.82188 4.53958 3.625 4.79167 3.625ZM7.08333 4.0625C7.08333 3.82188 7.28958 3.625 7.54167 3.625H8.45833C8.71042 3.625 8.91667 3.82188 8.91667 4.0625V4.9375C8.91667 5.17812 8.71042 5.375 8.45833 5.375H7.54167C7.28958 5.375 7.08333 5.17812 7.08333 4.9375V4.0625ZM10.2917 3.625H11.2083C11.4604 3.625 11.6667 3.82188 11.6667 4.0625V4.9375C11.6667 5.17812 11.4604 5.375 11.2083 5.375H10.2917C10.0396 5.375 9.83333 5.17812 9.83333 4.9375V4.0625C9.83333 3.82188 10.0396 3.625 10.2917 3.625Z" fill="#414042"/>
</svg>
