<svg width="16" height="16" viewBox="0 0 16 16" fill="none" xmlns="http://www.w3.org/2000/svg">
<path d="M7.99967 1.33325C7.1242 1.33325 6.25729 1.50569 5.44845 1.84072C4.63961 2.17575 3.90469 2.66682 3.28563 3.28587C2.03539 4.53612 1.33301 6.23181 1.33301 7.99992C1.33301 9.76803 2.03539 11.4637 3.28563 12.714C3.90469 13.333 4.63961 13.8241 5.44845 14.1591C6.25729 14.4941 7.1242 14.6666 7.99967 14.6666C9.76778 14.6666 11.4635 13.9642 12.7137 12.714C13.964 11.4637 14.6663 9.76803 14.6663 7.99992C14.6663 7.12444 14.4939 6.25753 14.1589 5.4487C13.8238 4.63986 13.3328 3.90493 12.7137 3.28587C12.0947 2.66682 11.3597 2.17575 10.5509 1.84072C9.74206 1.50569 8.87515 1.33325 7.99967 1.33325ZM10.7997 10.7999L7.33301 8.66658V4.66658H8.33301V8.13325L11.333 9.93325L10.7997 10.7999Z" fill="#414042"/>
</svg>
