<svg width="17" height="16" viewBox="0 0 17 16" fill="none" xmlns="http://www.w3.org/2000/svg">
<path
        d="M8.40006 1.33398C7.52459 1.33398 6.65768 1.50642 5.84884 1.84145C5.04 2.17649 4.30508 2.66755 3.68602 3.28661C2.43578 4.53685 1.7334 6.23254 1.7334 8.00065C1.7334 9.76876 2.43578 11.4645 3.68602 12.7147C4.30508 13.3338 5.04 13.8248 5.84884 14.1598C6.65768 14.4949 7.52459 14.6673 8.40006 14.6673C10.1682 14.6673 11.8639 13.9649 13.1141 12.7147C14.3644 11.4645 15.0667 9.76876 15.0667 8.00065C15.0667 7.12517 14.8943 6.25827 14.5593 5.44943C14.2242 4.64059 13.7332 3.90566 13.1141 3.28661C12.4951 2.66755 11.7601 2.17649 10.9513 1.84145C10.1425 1.50642 9.27554 1.33398 8.40006 1.33398ZM11.2001 10.8007L7.7334 8.66732V4.66732H8.7334V8.13398L11.7334 9.93398L11.2001 10.8007Z"
        fill="#414042" />
</svg>
