<svg width="16" height="17" viewBox="0 0 16 17" fill="none" xmlns="http://www.w3.org/2000/svg">
<path d="M8.66807 7.83327H12.0014L11.0014 6.83327L11.9481 5.88661L14.5614 8.49994L11.9481 11.1133L11.0014 10.1666L12.0014 9.16661H8.66807V12.4999L9.66807 11.4999L10.6147 12.4466L8.00141 15.0599L5.38807 12.4466L6.33474 11.4999L7.33474 12.4999V9.16661H4.00141L5.00141 10.1666L4.05474 11.1133L1.44141 8.49994L4.05474 5.88661L5.00141 6.83327L4.00141 7.83327H7.33474V4.49994L6.33474 5.49994L5.38807 4.55327L8.00141 1.93994L10.6147 4.55327L9.66807 5.49994L8.66807 4.49994V7.83327Z" fill="#046C82"/>
</svg>
