<svg width="17" height="16" viewBox="0 0 17 16" fill="none" xmlns="http://www.w3.org/2000/svg">
<path fill-rule="evenodd" clip-rule="evenodd" d="M3.96662 1.50977C3.65341 1.50977 3.35302 1.63419 3.13154 1.85567C2.91007 2.07714 2.78564 2.37753 2.78564 2.69074V13.3195C2.78564 13.6327 2.91007 13.9331 3.13154 14.1546C3.35302 14.3761 3.65341 14.5005 3.96662 14.5005H12.2334C12.5467 14.5005 12.847 14.3761 13.0685 14.1546C13.29 13.9331 13.4144 13.6327 13.4144 13.3195V5.05269C13.4145 4.97512 13.3993 4.89831 13.3696 4.82662C13.34 4.75494 13.2965 4.6898 13.2417 4.63492L10.2893 1.68248C10.2344 1.62767 10.1692 1.5842 10.0976 1.55456C10.0259 1.52493 9.94906 1.50971 9.87149 1.50977H3.96662ZM6.32857 10.0952H9.87149C10.0281 10.0952 10.1783 10.033 10.289 9.92224C10.3998 9.8115 10.462 9.66131 10.462 9.5047C10.462 9.34809 10.3998 9.1979 10.289 9.08716C10.1783 8.97642 10.0281 8.91421 9.87149 8.91421H6.32857C6.17196 8.91421 6.02177 8.97642 5.91103 9.08716C5.80029 9.1979 5.73808 9.34809 5.73808 9.5047C5.73808 9.66131 5.80029 9.8115 5.91103 9.92224C6.02177 10.033 6.17196 10.0952 6.32857 10.0952ZM6.32857 7.73324H9.87149C10.0281 7.73324 10.1783 7.67103 10.289 7.56029C10.3998 7.44955 10.462 7.29936 10.462 7.14275C10.462 6.98614 10.3998 6.83595 10.289 6.72521C10.1783 6.61447 10.0281 6.55226 9.87149 6.55226H6.32857C6.17196 6.55226 6.02177 6.61447 5.91103 6.72521C5.80029 6.83595 5.73808 6.98614 5.73808 7.14275C5.73808 7.29936 5.80029 7.44955 5.91103 7.56029C6.02177 7.67103 6.17196 7.73324 6.32857 7.73324Z" fill="#414042"/>
</svg>
