<svg width="16" height="16" viewBox="0 0 16 16" fill="none" xmlns="http://www.w3.org/2000/svg">
<path fill-rule="evenodd" clip-rule="evenodd" d="M5.0475 1.50928H3.86652C3.55331 1.50928 3.25292 1.6337 3.03145 1.85518C2.80997 2.07665 2.68555 2.37704 2.68555 2.69025V13.319C2.68555 13.6322 2.80997 13.9326 3.03145 14.1541C3.25292 14.3756 3.55331 14.5 3.86652 14.5H12.1333C12.4466 14.5 12.7469 14.3756 12.9684 14.1541C13.1899 13.9326 13.3143 13.6322 13.3143 13.319V12.1381V5.0522C13.3144 4.97464 13.2992 4.89782 13.2695 4.82613C13.2399 4.75445 13.1964 4.68931 13.1416 4.63443L10.1892 1.682C10.1343 1.62718 10.0691 1.58371 9.99746 1.55407C9.92578 1.52444 9.84896 1.50922 9.7714 1.50928H5.0475ZM6.22847 10.0947H9.7714C9.928 10.0947 10.0782 10.0325 10.1889 9.92175C10.2997 9.81101 10.3619 9.66082 10.3619 9.50421C10.3619 9.3476 10.2997 9.19741 10.1889 9.08667C10.0782 8.97594 9.928 8.91372 9.7714 8.91372H6.22847C6.07186 8.91372 5.92167 8.97594 5.81093 9.08667C5.7002 9.19741 5.63798 9.3476 5.63798 9.50421C5.63798 9.66082 5.7002 9.81101 5.81093 9.92175C5.92167 10.0325 6.07186 10.0947 6.22847 10.0947ZM6.22847 7.73275H9.7714C9.928 7.73275 10.0782 7.67054 10.1889 7.5598C10.2997 7.44906 10.3619 7.29887 10.3619 7.14226C10.3619 6.98565 10.2997 6.83546 10.1889 6.72472C10.0782 6.61399 9.928 6.55177 9.7714 6.55177H6.22847C6.07186 6.55177 5.92167 6.61399 5.81093 6.72472C5.7002 6.83546 5.63798 6.98565 5.63798 7.14226C5.63798 7.29887 5.7002 7.44906 5.81093 7.5598C5.92167 7.67054 6.07186 7.73275 6.22847 7.73275Z" fill="#414042"/>
</svg>
