<svg width="16" height="17" viewBox="0 0 16 17" fill="none" xmlns="http://www.w3.org/2000/svg">
<path d="M14.6529 6.02008C14.7417 6.26139 14.6668 6.53045 14.4754 6.70242L13.2744 7.79527C13.3049 8.02549 13.3215 8.26125 13.3215 8.49979C13.3215 8.73833 13.3049 8.9741 13.2744 9.20432L14.4754 10.2972C14.6668 10.4691 14.7417 10.7382 14.6529 10.9795C14.5309 11.3096 14.3839 11.6258 14.2147 11.9309L14.0843 12.1556C13.9012 12.4607 13.696 12.7491 13.4713 13.021C13.3077 13.2207 13.0358 13.2872 12.7917 13.2096L11.2468 12.7186C10.8751 13.0043 10.4646 13.2429 10.0263 13.4232L9.67962 15.007C9.62415 15.2594 9.42999 15.4591 9.1748 15.5007C8.79203 15.5645 8.39816 15.5978 7.99597 15.5978C7.59378 15.5978 7.19991 15.5645 6.81713 15.5007C6.56195 15.4591 6.36779 15.2594 6.31231 15.007L5.9656 13.4232C5.52735 13.2429 5.11684 13.0043 4.74516 12.7186L3.20297 13.2124C2.95888 13.29 2.68705 13.2207 2.5234 13.0237C2.29873 12.7519 2.09347 12.4635 1.91041 12.1583L1.78004 11.9337C1.61084 11.6286 1.46384 11.3124 1.34179 10.9823C1.25303 10.741 1.32792 10.4719 1.51931 10.2999L2.72034 9.20709C2.68983 8.9741 2.67318 8.73833 2.67318 8.49979C2.67318 8.26125 2.68983 8.02549 2.72034 7.79527L1.51931 6.70242C1.32792 6.53045 1.25303 6.26139 1.34179 6.02008C1.46384 5.69001 1.61084 5.3738 1.78004 5.06869L1.91041 4.84402C2.09347 4.53891 2.29873 4.25044 2.5234 3.97862C2.68705 3.77891 2.95888 3.71234 3.20297 3.79L4.74793 4.28095C5.11961 3.99526 5.53012 3.75672 5.96837 3.57643L6.31509 1.99263C6.37056 1.74022 6.56472 1.54051 6.81991 1.4989C7.20268 1.43233 7.59655 1.39905 7.99874 1.39905C8.40093 1.39905 8.7948 1.43233 9.17758 1.49613C9.43276 1.53773 9.62692 1.73744 9.6824 1.98985L10.0291 3.57365C10.4674 3.75394 10.8779 3.99248 11.2496 4.27818L12.7945 3.78723C13.0386 3.70956 13.3104 3.77891 13.4741 3.97584C13.6988 4.24767 13.904 4.53614 14.0871 4.84125L14.2174 5.06592C14.3866 5.37103 14.5336 5.68723 14.6557 6.01731L14.6529 6.02008ZM7.99874 10.7188C8.58725 10.7188 9.15166 10.485 9.5678 10.0689C9.98394 9.65271 10.2177 9.0883 10.2177 8.49979C10.2177 7.91128 9.98394 7.34688 9.5678 6.93074C9.15166 6.5146 8.58725 6.28081 7.99874 6.28081C7.41023 6.28081 6.84582 6.5146 6.42968 6.93074C6.01354 7.34688 5.77976 7.91128 5.77976 8.49979C5.77976 9.0883 6.01354 9.65271 6.42968 10.0689C6.84582 10.485 7.41023 10.7188 7.99874 10.7188Z" fill="#046C82"/>
</svg>
