<svg width="16" height="16" viewBox="0 0 16 16" fill="none" xmlns="http://www.w3.org/2000/svg">
<path d="M9.33366 9.99992L10.3337 10.9999M5.66699 8.33325C5.66699 8.86368 5.87771 9.37239 6.25278 9.74747C6.62785 10.1225 7.13656 10.3333 7.66699 10.3333C8.19743 10.3333 8.70613 10.1225 9.08121 9.74747C9.45628 9.37239 9.66699 8.86368 9.66699 8.33325C9.66699 7.80282 9.45628 7.29411 9.08121 6.91904C8.70613 6.54397 8.19743 6.33325 7.66699 6.33325C7.13656 6.33325 6.62785 6.54397 6.25278 6.91904C5.87771 7.29411 5.66699 7.80282 5.66699 8.33325Z" stroke="#414042" stroke-width="1.5" stroke-linecap="round" stroke-linejoin="round"/>
<path d="M2.66699 14.2666V1.73325C2.66699 1.62717 2.70913 1.52542 2.78415 1.45041C2.85916 1.37539 2.96091 1.33325 3.06699 1.33325H10.835C10.941 1.33335 11.0427 1.37555 11.1177 1.45059L13.2163 3.54925C13.2536 3.58652 13.2832 3.6308 13.3034 3.67954C13.3235 3.72828 13.3338 3.78052 13.3337 3.83325V14.2666C13.3337 14.3191 13.3233 14.3711 13.3032 14.4197C13.2831 14.4682 13.2536 14.5123 13.2165 14.5494C13.1794 14.5866 13.1353 14.616 13.0867 14.6361C13.0382 14.6562 12.9862 14.6666 12.9337 14.6666H3.06699C3.01446 14.6666 2.96245 14.6562 2.91392 14.6361C2.86539 14.616 2.82129 14.5866 2.78415 14.5494C2.74701 14.5123 2.71754 14.4682 2.69744 14.4197C2.67734 14.3711 2.66699 14.3191 2.66699 14.2666Z" stroke="#414042" stroke-width="1.5" stroke-linecap="round" stroke-linejoin="round"/>
<path d="M10.667 1.33325V3.59992C10.667 3.70601 10.7091 3.80775 10.7841 3.88276C10.8592 3.95778 10.9609 3.99992 11.067 3.99992H13.3337" stroke="#414042" stroke-width="1.5" stroke-linecap="round" stroke-linejoin="round"/>
</svg>
