<svg width="16" height="16" viewBox="0 0 16 16" fill="none" xmlns="http://www.w3.org/2000/svg">
<path d="M3.6 1.55469C4.13043 1.55469 4.63914 1.76686 5.01421 2.14453C5.38929 2.5222 5.6 3.03443 5.6 3.56854C5.6 4.10265 5.38929 4.61488 5.01421 4.99255C4.63914 5.37022 4.13043 5.5824 3.6 5.5824C3.06957 5.5824 2.56086 5.37022 2.18579 4.99255C1.81071 4.61488 1.6 4.10265 1.6 3.56854C1.6 3.03443 1.81071 2.5222 2.18579 2.14453C2.56086 1.76686 3.06957 1.55469 3.6 1.55469ZM12.8 1.55469C13.3304 1.55469 13.8391 1.76686 14.2142 2.14453C14.5893 2.5222 14.8 3.03443 14.8 3.56854C14.8 4.10265 14.5893 4.61488 14.2142 4.99255C13.8391 5.37022 13.3304 5.5824 12.8 5.5824C12.2696 5.5824 11.7609 5.37022 11.3858 4.99255C11.0107 4.61488 10.8 4.10265 10.8 3.56854C10.8 3.03443 11.0107 2.5222 11.3858 2.14453C11.7609 1.76686 12.2696 1.55469 12.8 1.55469ZM0 9.07392C0 7.59122 1.195 6.38794 2.6675 6.38794H3.735C4.1325 6.38794 4.51 6.47605 4.85 6.63212C4.8175 6.81337 4.8025 7.00217 4.8025 7.19348C4.8025 8.1551 5.2225 9.01854 5.885 9.61011H0.5325C0.24 9.61011 0 9.36844 0 9.07392ZM10.115 9.61011C10.78 9.01854 11.1975 8.1551 11.1975 7.19348C11.1975 7.00217 11.18 6.81588 11.15 6.63212C11.49 6.47353 11.8675 6.38794 12.265 6.38794H13.3325C14.805 6.38794 16 7.59122 16 9.07392C16 9.37096 15.76 9.61011 15.4675 9.61011H10.115ZM5.6 7.19348C5.6 6.55255 5.85286 5.93787 6.30294 5.48467C6.75303 5.03146 7.36348 4.77686 8 4.77686C8.63652 4.77686 9.24697 5.03146 9.69706 5.48467C10.1471 5.93787 10.4 6.55255 10.4 7.19348C10.4 7.83441 10.1471 8.44909 9.69706 8.90229C9.24697 9.3555 8.63652 9.61011 8 9.61011C7.36348 9.61011 6.75303 9.3555 6.30294 8.90229C5.85286 8.44909 5.6 7.83441 5.6 7.19348ZM3.2 13.7712C3.2 11.9185 4.6925 10.4156 6.5325 10.4156H9.465C11.3075 10.4156 12.8 11.9185 12.8 13.7712C12.8 14.1413 12.5025 14.4434 12.1325 14.4434H3.865C3.4975 14.4434 3.1975 14.1438 3.1975 13.7712H3.2Z" fill="#414042"/>
</svg>
