<svg width="21" height="12" viewBox="0 0 21 12" fill="none" xmlns="http://www.w3.org/2000/svg">
<rect x="0.930459" y="1.18974" width="19.8448" height="10.5928" rx="5.2964" stroke="#4C2A85" stroke-width="0.435136"/>
<path d="M4.91614 4.13726V5.34947C4.91614 5.48866 4.91199 5.62369 4.90368 5.75457C4.89745 5.88545 4.89225 5.98725 4.8881 6.05996H4.91614C5.00963 5.90623 5.14467 5.77639 5.32125 5.67043C5.49784 5.56448 5.72324 5.51151 5.99747 5.51151C6.42543 5.51151 6.76613 5.66005 7.01959 5.95713C7.27512 6.25213 7.40288 6.69151 7.40288 7.27528C7.40288 7.65962 7.34471 7.9837 7.22837 8.24754C7.11203 8.51138 6.94791 8.71082 6.73601 8.84585C6.52411 8.98089 6.27377 9.04841 5.985 9.04841C5.71493 9.04841 5.49264 8.99855 5.31814 8.89883C5.1457 8.79703 5.01275 8.67342 4.91926 8.528H4.87875L4.7728 8.98608H4.39885V4.13726H4.91614ZM5.91333 5.94466C5.66611 5.94466 5.46979 5.99348 5.32437 6.09112C5.17894 6.18669 5.07403 6.33211 5.00963 6.52739C4.94731 6.7206 4.91614 6.96574 4.91614 7.26282V7.29086C4.91614 7.7209 4.98782 8.05018 5.13116 8.2787C5.27451 8.50515 5.53523 8.61837 5.91333 8.61837C6.23119 8.61837 6.46906 8.50203 6.62694 8.26936C6.78691 8.03668 6.86689 7.70428 6.86689 7.27217C6.86689 6.83174 6.78795 6.50039 6.63006 6.2781C6.47425 6.05581 6.23534 5.94466 5.91333 5.94466ZM9.62162 5.50839C9.91247 5.50839 10.1618 5.57279 10.3695 5.7016C10.5773 5.8304 10.7362 6.01114 10.8463 6.24382C10.9564 6.47442 11.0115 6.74449 11.0115 7.05403V7.375H8.65248C8.65871 7.77596 8.75843 8.08134 8.95164 8.29117C9.14484 8.50099 9.41699 8.60591 9.76809 8.60591C9.98414 8.60591 10.1753 8.58617 10.3415 8.5467C10.5077 8.50723 10.6801 8.44906 10.8588 8.37219V8.82716C10.6863 8.90402 10.5149 8.96012 10.3446 8.99543C10.1763 9.03075 9.97687 9.04841 9.74627 9.04841C9.41803 9.04841 9.13134 8.98193 8.8862 8.84897C8.64313 8.71393 8.45408 8.51657 8.31905 8.25689C8.18401 7.99721 8.11649 7.67935 8.11649 7.30333C8.11649 6.93562 8.17778 6.61776 8.30035 6.34977C8.425 6.0797 8.59951 5.87195 8.82387 5.72653C9.05032 5.5811 9.31623 5.50839 9.62162 5.50839ZM9.61539 5.9322C9.33909 5.9322 9.11887 6.02257 8.95475 6.20331C8.79063 6.38405 8.69299 6.63646 8.66183 6.96055H10.4692C10.4672 6.75695 10.435 6.57829 10.3726 6.42456C10.3124 6.26875 10.2199 6.14825 10.0953 6.06308C9.97064 5.97582 9.81067 5.9322 9.61539 5.9322ZM12.9934 8.6246C13.0785 8.6246 13.1658 8.61733 13.2551 8.60279C13.3445 8.58825 13.4172 8.57059 13.4733 8.54981V8.95181C13.413 8.97881 13.3289 9.00167 13.2208 9.02036C13.1149 9.03906 13.011 9.04841 12.9092 9.04841C12.7285 9.04841 12.5644 9.01725 12.4169 8.95492C12.2694 8.89052 12.1509 8.78249 12.0616 8.63084C11.9744 8.47918 11.9307 8.26936 11.9307 8.00136V5.97582H11.4446V5.72341L11.9339 5.52086L12.1395 4.7792H12.4511V5.57072H13.4514V5.97582H12.4511V7.98578C12.4511 8.19976 12.5 8.35973 12.5976 8.46568C12.6973 8.57163 12.8292 8.6246 12.9934 8.6246ZM15.4427 5.51462C15.8499 5.51462 16.1522 5.60603 16.3495 5.78885C16.5469 5.97167 16.6456 6.26355 16.6456 6.66451V8.98608H16.2685L16.1688 8.48126H16.1439C16.0483 8.60591 15.9486 8.71082 15.8447 8.796C15.7408 8.87909 15.6203 8.94246 15.4832 8.98608C15.3482 9.02763 15.182 9.04841 14.9846 9.04841C14.7769 9.04841 14.592 9.01205 14.4299 8.93934C14.27 8.86663 14.1432 8.75652 14.0498 8.60902C13.9584 8.46152 13.9126 8.27455 13.9126 8.0481C13.9126 7.7074 14.0477 7.44564 14.3178 7.26282C14.5878 7.08 14.9992 6.98028 15.5518 6.96366L16.1407 6.93873V6.72995C16.1407 6.43495 16.0774 6.22824 15.9506 6.10982C15.8239 5.9914 15.6453 5.9322 15.4147 5.9322C15.236 5.9322 15.0656 5.95817 14.9036 6.0101C14.7416 6.06204 14.5878 6.12332 14.4424 6.19396L14.2835 5.80132C14.4372 5.72237 14.6138 5.65485 14.8132 5.59876C15.0127 5.54267 15.2225 5.51462 15.4427 5.51462ZM16.1345 7.30333L15.6141 7.32514C15.1882 7.34176 14.888 7.41136 14.7135 7.53393C14.539 7.6565 14.4518 7.82997 14.4518 8.05434C14.4518 8.24962 14.511 8.394 14.6294 8.48749C14.7478 8.58098 14.9046 8.62772 15.0999 8.62772C15.4032 8.62772 15.6515 8.54358 15.8447 8.37531C16.0379 8.20703 16.1345 7.95462 16.1345 7.61807V7.30333Z" fill="#4C2A85"/>
</svg>
