<svg width="17" height="17" viewBox="0 0 17 17" fill="none" xmlns="http://www.w3.org/2000/svg">
<path d="M2.5 4.75737C2.5 4.43471 2.73 4.17271 3.014 4.17271H4.79067C5.14333 4.16204 5.45467 3.90671 5.57467 3.52937L5.59467 3.46271L5.67133 3.20204C5.718 3.04204 5.75867 2.90204 5.816 2.77737C6.04133 2.28471 6.45867 1.94271 6.94067 1.85537C7.06333 1.83337 7.19267 1.83337 7.34067 1.83337H9.65933C9.808 1.83337 9.93733 1.83337 10.0593 1.85537C10.5413 1.94271 10.9593 2.28471 11.184 2.77737C11.2413 2.90204 11.282 3.04137 11.3293 3.20204L11.4053 3.46271L11.4253 3.52937C11.5453 3.90671 11.9187 4.16271 12.272 4.17271H13.9853C14.27 4.17271 14.5 4.43471 14.5 4.75737C14.5 5.08004 14.27 5.34204 13.986 5.34204H3.01333C2.73 5.34204 2.5 5.08004 2.5 4.75737Z" fill="#046C82"/>
<path fill-rule="evenodd" clip-rule="evenodd" d="M8.23325 15.1666H8.77191C10.6272 15.1666 11.5546 15.1666 12.1586 14.5759C12.7612 13.9853 12.8226 13.0166 12.9459 11.0793L13.1239 8.28728C13.1906 7.23595 13.2239 6.70995 12.9219 6.37728C12.6192 6.04395 12.1086 6.04395 11.0866 6.04395H5.91858C4.89658 6.04395 4.38525 6.04395 4.08325 6.37728C3.78125 6.71061 3.81391 7.23595 3.88125 8.28728L4.05925 11.0793C4.18258 13.0166 4.24391 13.9859 4.84725 14.5759C5.45058 15.1666 6.37791 15.1666 8.23325 15.1666ZM7.33325 8.62595C7.30658 8.33661 7.06125 8.12595 6.78658 8.15461C6.51125 8.18328 6.31125 8.44128 6.33858 8.73061L6.67191 12.2393C6.69858 12.5286 6.94391 12.7393 7.21858 12.7106C7.49391 12.6819 7.69391 12.4239 7.66658 12.1346L7.33325 8.62595ZM10.2192 8.15461C10.4939 8.18328 10.6946 8.44128 10.6666 8.73061L10.3332 12.2393C10.3066 12.5286 10.0606 12.7393 9.78658 12.7106C9.51125 12.6819 9.31125 12.4239 9.33858 12.1346L9.67191 8.62595C9.69858 8.33661 9.94525 8.12595 10.2192 8.15461Z" fill="#046C82"/>
</svg>
