<svg width="17" height="17" viewBox="0 0 17 17" fill="none" xmlns="http://www.w3.org/2000/svg">
<g clip-path="url(#clip0_4286_10784)">
<path d="M1.66406 16H15.1641C15.2967 16 15.4238 15.9473 15.5176 15.8536C15.6114 15.7598 15.6641 15.6326 15.6641 15.5C15.6641 15.3674 15.6114 15.2402 15.5176 15.1464C15.4238 15.0527 15.2967 15 15.1641 15H1.66406V1.5C1.66406 1.36739 1.61138 1.24021 1.51762 1.14645C1.42385 1.05268 1.29667 1 1.16406 1C1.03145 1 0.904277 1.05268 0.810509 1.14645C0.716741 1.24021 0.664062 1.36739 0.664062 1.5V15C0.664062 15.2652 0.769419 15.5196 0.956956 15.7071C1.14449 15.8946 1.39885 16 1.66406 16Z" fill="#414042"/>
<path d="M3.78906 14H5.03906C5.33743 14 5.62358 13.8815 5.83456 13.6705C6.04554 13.4595 6.16406 13.1734 6.16406 12.875V8.125C6.16406 7.82663 6.04554 7.54048 5.83456 7.3295C5.62358 7.11853 5.33743 7 5.03906 7H3.78906C3.49069 7 3.20455 7.11853 2.99357 7.3295C2.78259 7.54048 2.66406 7.82663 2.66406 8.125V12.875C2.66406 13.1734 2.78259 13.4595 2.99357 13.6705C3.20455 13.8815 3.49069 14 3.78906 14Z" fill="#414042"/>
<path d="M8.28906 14H9.53906C9.83743 14 10.1236 13.8815 10.3346 13.6705C10.5455 13.4595 10.6641 13.1734 10.6641 12.875V6.625C10.6641 6.32663 10.5455 6.04048 10.3346 5.8295C10.1236 5.61853 9.83743 5.5 9.53906 5.5H8.28906C7.99069 5.5 7.70455 5.61853 7.49357 5.8295C7.28259 6.04048 7.16406 6.32663 7.16406 6.625V12.875C7.16406 13.1734 7.28259 13.4595 7.49357 13.6705C7.70455 13.8815 7.99069 14 8.28906 14Z" fill="#414042"/>
<path d="M12.7778 14H14.0278C14.3262 14 14.6123 13.8815 14.8233 13.6705C15.0343 13.4595 15.1528 13.1734 15.1528 12.875V4.625C15.1528 4.32663 15.0343 4.04048 14.8233 3.8295C14.6123 3.61853 14.3262 3.5 14.0278 3.5H12.7778C12.4794 3.5 12.1933 3.61853 11.9823 3.8295C11.7713 4.04048 11.6528 4.32663 11.6528 4.625V12.875C11.6528 13.1734 11.7713 13.4595 11.9823 13.6705C12.1933 13.8815 12.4794 14 12.7778 14Z" fill="#414042"/>
</g>
<defs>
<clipPath id="clip0_4286_10784">
<rect width="16" height="16" fill="white" transform="translate(0.164062 0.5)"/>
</clipPath>
</defs>
</svg>
