<svg width="17" height="16" viewBox="0 0 17 16" fill="none" xmlns="http://www.w3.org/2000/svg">
<g id="chart" clip-path="url(#clip0_3930_50972)">
<g id="Vector">
<path d="M1.66406 15.5H15.1641C15.2967 15.5 15.4238 15.4473 15.5176 15.3536C15.6114 15.2598 15.6641 15.1326 15.6641 15C15.6641 14.8674 15.6114 14.7402 15.5176 14.6464C15.4238 14.5527 15.2967 14.5 15.1641 14.5H1.66406V1C1.66406 0.867392 1.61138 0.740215 1.51762 0.646447C1.42385 0.552678 1.29667 0.5 1.16406 0.5C1.03145 0.5 0.904277 0.552678 0.810509 0.646447C0.716741 0.740215 0.664062 0.867392 0.664062 1V14.5C0.664062 14.7652 0.769419 15.0196 0.956956 15.2071C1.14449 15.3946 1.39885 15.5 1.66406 15.5Z" fill="#054e63"/>
<path d="M3.78906 13.5H5.03906C5.33743 13.5 5.62358 13.3815 5.83456 13.1705C6.04554 12.9595 6.16406 12.6734 6.16406 12.375V7.625C6.16406 7.32663 6.04554 7.04048 5.83456 6.8295C5.62358 6.61853 5.33743 6.5 5.03906 6.5H3.78906C3.49069 6.5 3.20455 6.61853 2.99357 6.8295C2.78259 7.04048 2.66406 7.32663 2.66406 7.625V12.375C2.66406 12.6734 2.78259 12.9595 2.99357 13.1705C3.20455 13.3815 3.49069 13.5 3.78906 13.5Z" fill="#054e63"/>
<path d="M8.28906 13.5H9.53906C9.83743 13.5 10.1236 13.3815 10.3346 13.1705C10.5455 12.9595 10.6641 12.6734 10.6641 12.375V6.125C10.6641 5.82663 10.5455 5.54048 10.3346 5.3295C10.1236 5.11853 9.83743 5 9.53906 5H8.28906C7.99069 5 7.70455 5.11853 7.49357 5.3295C7.28259 5.54048 7.16406 5.82663 7.16406 6.125V12.375C7.16406 12.6734 7.28259 12.9595 7.49357 13.1705C7.70455 13.3815 7.99069 13.5 8.28906 13.5Z" fill="#054e63"/>
<path d="M12.7778 13.5H14.0278C14.3262 13.5 14.6123 13.3815 14.8233 13.1705C15.0343 12.9595 15.1528 12.6734 15.1528 12.375V4.125C15.1528 3.82663 15.0343 3.54048 14.8233 3.3295C14.6123 3.11853 14.3262 3 14.0278 3H12.7778C12.4794 3 12.1933 3.11853 11.9823 3.3295C11.7713 3.54048 11.6528 3.82663 11.6528 4.125V12.375C11.6528 12.6734 11.7713 12.9595 11.9823 13.1705C12.1933 13.3815 12.4794 13.5 12.7778 13.5Z" fill="#054e63"/>
</g>
</g>
<defs>
<clipPath id="clip0_3930_50972">
<rect width="16" height="16" fill="white" transform="translate(0.164062)"/>
</clipPath>
</defs>
</svg>
