<svg xmlns="http://www.w3.org/2000/svg" width="16" height="16" viewBox="0 0 16 16" fill="none">
  <path fill-rule="evenodd" clip-rule="evenodd" d="M3.2392 2.78461C3.53209 2.49172 4.00697 2.49172 4.29986 2.78461L8.95459 7.43934L13.6093 2.78461C13.9022 2.49172 14.3771 2.49172 14.67 2.78461C14.9629 3.0775 14.9629 3.55238 14.67 3.84527L10.0152 8.5L14.67 13.1547C14.9629 13.4476 14.9629 13.9225 14.67 14.2154C14.3771 14.5083 13.9022 14.5083 13.6093 14.2154L8.95459 9.56066L4.29986 14.2154C4.00697 14.5083 3.53209 14.5083 3.2392 14.2154C2.94631 13.9225 2.94631 13.4476 3.2392 13.1547L7.89393 8.5L3.2392 3.84527C2.94631 3.55238 2.94631 3.0775 3.2392 2.78461Z" fill="#fff"/>
</svg>
