<svg width="14" height="15" viewBox="0 0 14 15" fill="none" xmlns="http://www.w3.org/2000/svg">
<g id="Group">
<path id="Vector" d="M7.39545 14.5046L7.38811 14.506L7.34078 14.5293L7.32745 14.532L7.31811 14.5293L7.27078 14.506C7.26367 14.5038 7.25834 14.5049 7.25478 14.5093L7.25211 14.516L7.24078 14.8013L7.24411 14.8146L7.25078 14.8233L7.32011 14.8726L7.33011 14.8753L7.33811 14.8726L7.40745 14.8233L7.41545 14.8126L7.41811 14.8013L7.40678 14.5166C7.405 14.5095 7.40123 14.5055 7.39545 14.5046ZM7.57211 14.4293L7.56345 14.4306L7.44011 14.4926L7.43345 14.4993L7.43145 14.5066L7.44345 14.7933L7.44678 14.8013L7.45211 14.806L7.58611 14.868C7.59456 14.8702 7.601 14.8684 7.60545 14.8626L7.60811 14.8533L7.58545 14.444C7.58323 14.436 7.57878 14.4311 7.57211 14.4293ZM7.09545 14.4306C7.09251 14.4289 7.089 14.4283 7.08565 14.429C7.08229 14.4298 7.07936 14.4318 7.07745 14.4346L7.07345 14.444L7.05078 14.8533C7.05123 14.8613 7.055 14.8666 7.06211 14.8693L7.07211 14.868L7.20611 14.806L7.21278 14.8006L7.21545 14.7933L7.22678 14.5066L7.22478 14.4986L7.21811 14.492L7.09545 14.4306Z" fill="#003E54"/>
<path id="Vector_2" d="M6.9987 0.333008C10.6807 0.333008 13.6654 3.31767 13.6654 6.99967C13.6654 10.6817 10.6807 13.6663 6.9987 13.6663C3.3167 13.6663 0.332031 10.6817 0.332031 6.99967C0.332031 3.31767 3.3167 0.333008 6.9987 0.333008ZM9.82736 4.17101C9.59136 3.93567 6.52736 4.64234 5.5847 5.58567C4.64203 6.52834 3.9347 9.59234 4.17003 9.82834C4.40603 10.0637 7.47003 9.35701 8.4127 8.41367C9.35603 7.47101 10.0627 4.40701 9.82736 4.17101ZM6.9987 6.33301C7.17551 6.33301 7.34508 6.40325 7.4701 6.52827C7.59513 6.65329 7.66536 6.82286 7.66536 6.99967C7.66536 7.17649 7.59513 7.34605 7.4701 7.47108C7.34508 7.5961 7.17551 7.66634 6.9987 7.66634C6.82189 7.66634 6.65232 7.5961 6.52729 7.47108C6.40227 7.34605 6.33203 7.17649 6.33203 6.99967C6.33203 6.82286 6.40227 6.65329 6.52729 6.52827C6.65232 6.40325 6.82189 6.33301 6.9987 6.33301Z" fill="#003E54"/>
</g>
</svg>
