<svg width="16" height="17" viewBox="0 0 16 17" fill="none" xmlns="http://www.w3.org/2000/svg">
<g clip-path="url(#clip0_2056_27731)">
<path d="M8.39545 16.0054L8.38811 16.0067L8.34078 16.03L8.32745 16.0327L8.31811 16.03L8.27078 16.0067C8.26367 16.0045 8.25834 16.0056 8.25478 16.01L8.25211 16.0167L8.24078 16.302L8.24411 16.3154L8.25078 16.324L8.32011 16.3734L8.33011 16.376L8.33811 16.3734L8.40745 16.324L8.41545 16.3134L8.41811 16.302L8.40678 16.0174C8.405 16.0103 8.40123 16.0063 8.39545 16.0054ZM8.57211 15.93L8.56345 15.9314L8.44011 15.9934L8.43345 16L8.43145 16.0074L8.44345 16.294L8.44678 16.302L8.45211 16.3067L8.58611 16.3687C8.59456 16.3709 8.601 16.3692 8.60545 16.3634L8.60811 16.354L8.58545 15.9447C8.58323 15.9367 8.57878 15.9318 8.57211 15.93ZM8.09545 15.9314C8.09251 15.9296 8.089 15.929 8.08565 15.9298C8.08229 15.9305 8.07936 15.9325 8.07745 15.9354L8.07345 15.9447L8.05078 16.354C8.05123 16.362 8.055 16.3674 8.06211 16.37L8.07211 16.3687L8.20611 16.3067L8.21278 16.3014L8.21545 16.294L8.22678 16.0074L8.22478 15.9994L8.21811 15.9927L8.09545 15.9314Z" fill="#046C82"/>
<path d="M12.6667 1.83337C13.0203 1.83337 13.3594 1.97385 13.6095 2.2239C13.8595 2.47395 14 2.81309 14 3.16671V11.1667C14 11.5203 13.8595 11.8595 13.6095 12.1095C13.3594 12.3596 13.0203 12.5 12.6667 12.5H11.3333V13.8334C11.3333 14.187 11.1929 14.5261 10.9428 14.7762C10.6928 15.0262 10.3536 15.1667 10 15.1667H3.33333C2.97971 15.1667 2.64057 15.0262 2.39052 14.7762C2.14048 14.5261 2 14.187 2 13.8334V5.83337C2 5.47975 2.14048 5.14061 2.39052 4.89056C2.64057 4.64052 2.97971 4.50004 3.33333 4.50004H4.66667V3.16671C4.66667 2.81309 4.80714 2.47395 5.05719 2.2239C5.30724 1.97385 5.64638 1.83337 6 1.83337H12.6667ZM6.66667 10.5H5.33333C5.16341 10.5002 4.99998 10.5653 4.87642 10.6819C4.75286 10.7986 4.67851 10.958 4.66855 11.1276C4.65859 11.2973 4.71378 11.4643 4.82284 11.5946C4.9319 11.7249 5.0866 11.8086 5.25533 11.8287L5.33333 11.8334H6.66667C6.83659 11.8332 7.00002 11.7681 7.12358 11.6515C7.24714 11.5348 7.32149 11.3754 7.33145 11.2058C7.34141 11.0361 7.28622 10.8691 7.17716 10.7388C7.0681 10.6085 6.9134 10.5248 6.74467 10.5047L6.66667 10.5ZM12.6667 3.16671H6V4.50004H10C10.3536 4.50004 10.6928 4.64052 10.9428 4.89056C11.1929 5.14061 11.3333 5.47975 11.3333 5.83337V11.1667H12.6667V3.16671ZM8 7.83337H5.33333C5.15652 7.83337 4.98695 7.90361 4.86193 8.02864C4.7369 8.15366 4.66667 8.32323 4.66667 8.50004C4.66667 8.67685 4.7369 8.84642 4.86193 8.97144C4.98695 9.09647 5.15652 9.16671 5.33333 9.16671H8C8.17681 9.16671 8.34638 9.09647 8.4714 8.97144C8.59643 8.84642 8.66667 8.67685 8.66667 8.50004C8.66667 8.32323 8.59643 8.15366 8.4714 8.02864C8.34638 7.90361 8.17681 7.83337 8 7.83337Z" fill="#046C82"/>
</g>
<defs>
<clipPath id="clip0_2056_27731">
<rect width="16" height="16" fill="white" transform="translate(0 0.5)"/>
</clipPath>
</defs>
</svg>
