<svg width="13" height="13" viewBox="0 0 13 13" fill="none" xmlns="http://www.w3.org/2000/svg">
<path d="M12.25 11.5625H0.75C0.473437 11.5625 0.25 11.7859 0.25 12.0625V12.625C0.25 12.6938 0.30625 12.75 0.375 12.75H12.625C12.6938 12.75 12.75 12.6938 12.75 12.625V12.0625C12.75 11.7859 12.5266 11.5625 12.25 11.5625ZM2.52656 10.25C2.55781 10.25 2.58906 10.2469 2.62031 10.2422L5.24844 9.78125C5.27969 9.775 5.30938 9.76094 5.33125 9.7375L11.9547 3.11406C11.9692 3.09961 11.9807 3.08244 11.9885 3.06354C11.9963 3.04463 12.0004 3.02437 12.0004 3.00391C12.0004 2.98344 11.9963 2.96318 11.9885 2.94428C11.9807 2.92538 11.9692 2.90821 11.9547 2.89375L9.35781 0.295313C9.32812 0.265625 9.28906 0.25 9.24687 0.25C9.20469 0.25 9.16563 0.265625 9.13594 0.295313L2.5125 6.91875C2.48906 6.94219 2.475 6.97031 2.46875 7.00156L2.00781 9.62969C1.99261 9.71339 1.99804 9.79954 2.02364 9.88067C2.04923 9.96181 2.09421 10.0355 2.15469 10.0953C2.25781 10.1953 2.3875 10.25 2.52656 10.25Z" fill="#046C82"/>
</svg>
