<svg width="16" height="17" viewBox="0 0 16 17" fill="none" xmlns="http://www.w3.org/2000/svg">
<g clip-path="url(#clip0_216_41660)">
<path d="M1.15762 2.61966C0.897628 2.42748 0.520135 2.47201 0.315138 2.71575C0.110142 2.9595 0.157641 3.3134 0.417636 3.50558L15.2174 14.3803C15.4774 14.5725 15.8549 14.528 16.0599 14.2842C16.2649 14.0405 16.2174 13.6866 15.9574 13.4944L13.3274 11.5632C14.3174 10.6117 14.9874 9.54529 15.3249 8.78827C15.4074 8.60312 15.4074 8.39688 15.3249 8.21173C14.9524 7.37502 14.1699 6.1563 12.9999 5.13914C11.8249 4.1126 10.2075 3.25012 8.1875 3.25012C6.48253 3.25012 5.06255 3.86651 3.95507 4.67508L1.15762 2.61966ZM5.76504 6.00396C6.40253 5.45788 7.25502 5.12507 8.1875 5.12507C10.175 5.12507 11.7874 6.63676 11.7874 8.5C11.7874 9.08358 11.6299 9.63201 11.3524 10.1101L10.3875 9.40232C10.5975 8.94999 10.6525 8.43203 10.5075 7.91876C10.23 6.94613 9.31248 6.29224 8.2925 6.25239C8.1475 6.24771 8.0625 6.39536 8.1075 6.52661C8.16 6.6766 8.19 6.83597 8.19 7.00238C8.19 7.24143 8.13 7.46643 8.025 7.66564L5.76754 6.0063L5.76504 6.00396ZM9.51248 11.6382C9.10248 11.7906 8.65499 11.8749 8.1875 11.8749C6.20003 11.8749 4.58756 10.3632 4.58756 8.5C4.58756 8.33828 4.60006 8.18126 4.62256 8.02657L2.2651 6.2852C1.69511 6.98128 1.28762 7.67502 1.05013 8.21173C0.967627 8.39688 0.967627 8.60312 1.05013 8.78827C1.42262 9.62498 2.20511 10.8437 3.37508 11.8609C4.55006 12.8874 6.16754 13.7499 8.1875 13.7499C9.38248 13.7499 10.435 13.4475 11.3424 12.9882L9.51248 11.6382Z" fill="#046C82"/>
</g>
<defs>
<clipPath id="clip0_216_41660">
<rect width="16" height="16" fill="white" transform="translate(0 0.5)"/>
</clipPath>
</defs>
</svg>
