<svg width="16" height="16" viewBox="0 0 16 16" fill="none"
     xmlns="http://www.w3.org/2000/svg">
    <path fill-rule="evenodd" clip-rule="evenodd"
          d="M 3.2736 0.5107 C 2.9122 0.5107 2.5656 0.6542 2.31 0.9098 C 2.0547 1.1652 1.9111 1.5118 1.9111 1.8732 V 14.1365 C 1.9111 14.4978 2.0547 14.8445 2.31 15.1001 C 2.5656 15.3556 2.9122 15.4992 3.2736 15.4992 H 12.8117 C 13.1731 15.4992 13.5196 15.3556 13.7752 15.1001 C 14.0307 14.8445 14.1743 14.4978 14.1743 14.1365 V 4.5984 C 14.1744 4.5088 14.1568 4.4203 14.1226 4.3376 C 14.0884 4.255 14.0382 4.1797 13.9751 4.1164 L 10.5686 0.7099 C 10.5053 0.6467 10.43 0.5966 10.3474 0.5623 C 10.2647 0.5281 10.1761 0.5106 10.0866 0.5107 H 3.2736 Z M 5.9988 10.4163 H 10.0866 C 10.2672 10.4163 10.4405 10.3446 10.5683 10.2167 C 10.6961 10.089 10.7679 9.9157 10.7679 9.735 C 10.7679 9.5544 10.6961 9.381 10.5683 9.2533 C 10.4405 9.1255 10.2672 9.0538 10.0866 9.0538 H 5.9988 C 5.8182 9.0538 5.6448 9.1255 5.517 9.2533 C 5.3892 9.381 5.3175 9.5544 5.3175 9.735 C 5.3175 9.9157 5.3892 10.089 5.517 10.2167 C 5.6448 10.3446 5.8182 10.4163 5.9988 10.4163 Z M 5.9988 7.6913 H 10.0866 C 10.2672 7.6913 10.4405 7.6194 10.5683 7.4916 C 10.6961 7.3639 10.7679 7.1907 10.7679 7.0099 C 10.7679 6.8292 10.6961 6.6559 10.5683 6.5281 C 10.4405 6.4003 10.2672 6.3286 10.0866 6.3286 H 5.9988 C 5.8182 6.3286 5.6448 6.4003 5.517 6.5281 C 5.3892 6.6559 5.3175 6.8292 5.3175 7.0099 C 5.3175 7.1907 5.3892 7.3639 5.517 7.4916 C 5.6448 7.6194 5.8182 7.6913 5.9988 7.6913 Z"
          fill="#003E54"/>
</svg>
