<svg width="16" height="16" viewBox="0 0 16 16" fill="none" xmlns="http://www.w3.org/2000/svg">
<path d="M14.6539 5.51947C14.7427 5.76078 14.6678 6.02984 14.4764 6.20181L13.2754 7.29466C13.3059 7.52488 13.3225 7.76064 13.3225 7.99918C13.3225 8.23772 13.3059 8.47349 13.2754 8.70371L14.4764 9.79656C14.6678 9.96853 14.7427 10.2376 14.6539 10.4789C14.5318 10.809 14.3848 11.1252 14.2156 11.4303L14.0853 11.655C13.9022 11.9601 13.697 12.2485 13.4723 12.5204C13.3086 12.7201 13.0368 12.7866 12.7927 12.709L11.2478 12.218C10.8761 12.5037 10.4656 12.7423 10.0273 12.9226L9.6806 14.5064C9.62512 14.7588 9.43096 14.9585 9.17578 15.0001C8.79301 15.0639 8.39914 15.0972 7.99694 15.0972C7.59475 15.0972 7.20088 15.0639 6.81811 15.0001C6.56293 14.9585 6.36877 14.7588 6.31329 14.5064L5.96658 12.9226C5.52833 12.7423 5.11781 12.5037 4.74613 12.218L3.20394 12.7117C2.95985 12.7894 2.68803 12.7201 2.52438 12.5231C2.29971 12.2513 2.09445 11.9628 1.91138 11.6577L1.78102 11.4331C1.61182 11.1279 1.46481 10.8117 1.34277 10.4817C1.25401 10.2404 1.3289 9.9713 1.52029 9.79933L2.72131 8.70648C2.6908 8.47349 2.67416 8.23772 2.67416 7.99918C2.67416 7.76064 2.6908 7.52488 2.72131 7.29466L1.52029 6.20181C1.3289 6.02984 1.25401 5.76078 1.34277 5.51947C1.46481 5.1894 1.61182 4.87319 1.78102 4.56808L1.91138 4.34341C2.09445 4.0383 2.29971 3.74983 2.52438 3.47801C2.68803 3.2783 2.95985 3.21173 3.20394 3.28939L4.74891 3.78034C5.12059 3.49465 5.5311 3.25611 5.96935 3.07581L6.31607 1.49202C6.37154 1.23961 6.5657 1.0399 6.82088 0.998292C7.20366 0.931722 7.59753 0.898438 7.99972 0.898438C8.40191 0.898438 8.79578 0.931722 9.17855 0.995518C9.43374 1.03712 9.6279 1.23683 9.68337 1.48924L10.0301 3.07304C10.4683 3.25333 10.8788 3.49187 11.2505 3.77757L12.7955 3.28662C13.0396 3.20895 13.3114 3.2783 13.4751 3.47523C13.6997 3.74706 13.905 4.03552 14.0881 4.34064L14.2184 4.56531C14.3876 4.87042 14.5346 5.18662 14.6567 5.5167L14.6539 5.51947ZM7.99972 10.2182C8.58823 10.2182 9.15264 9.98438 9.56878 9.56824C9.98492 9.1521 10.2187 8.58769 10.2187 7.99918C10.2187 7.41067 9.98492 6.84627 9.56878 6.43013C9.15264 6.01399 8.58823 5.7802 7.99972 5.7802C7.41121 5.7802 6.8468 6.01399 6.43066 6.43013C6.01452 6.84627 5.78074 7.41067 5.78074 7.99918C5.78074 8.58769 6.01452 9.1521 6.43066 9.56824C6.8468 9.98438 7.41121 10.2182 7.99972 10.2182Z" fill="#ffffff"/>
</svg>
