<svg xmlns="http://www.w3.org/2000/svg" width="16" height="16" viewBox="0 0 16 16" fill="none">
  <path d="M7.9987 14.6663C7.07648 14.6663 6.20981 14.4912 5.3987 14.141C4.58759 13.7908 3.88203 13.3159 3.28203 12.7163C2.68203 12.1168 2.20714 11.4112 1.85737 10.5997C1.50759 9.78812 1.33248 8.92145 1.33203 7.99967C1.33159 7.0779 1.5067 6.21123 1.85737 5.39967C2.20803 4.58812 2.68292 3.88256 3.28203 3.28301C3.88114 2.68345 4.5867 2.20856 5.3987 1.85834C6.2107 1.50812 7.07737 1.33301 7.9987 1.33301C8.92003 1.33301 9.7867 1.50812 10.5987 1.85834C11.4107 2.20856 12.1163 2.68345 12.7154 3.28301C13.3145 3.88256 13.7896 4.58812 14.1407 5.39967C14.4918 6.21123 14.6667 7.0779 14.6654 7.99967C14.664 8.92145 14.4889 9.78812 14.14 10.5997C13.7911 11.4112 13.3163 12.1168 12.7154 12.7163C12.1145 13.3159 11.4089 13.791 10.5987 14.1417C9.78848 14.4923 8.92181 14.6672 7.9987 14.6663ZM7.9987 13.333C9.48759 13.333 10.7487 12.8163 11.782 11.783C12.8154 10.7497 13.332 9.48856 13.332 7.99967C13.332 7.9219 13.3294 7.84123 13.324 7.75767C13.3187 7.67412 13.3158 7.60478 13.3154 7.54967C13.2598 7.8719 13.1098 8.13856 12.8654 8.34967C12.6209 8.56078 12.332 8.66634 11.9987 8.66634H10.6654C10.2987 8.66634 9.98492 8.5359 9.72403 8.27501C9.46314 8.01412 9.33248 7.70012 9.33203 7.33301V6.66634H6.66537V5.33301C6.66537 4.96634 6.79603 4.65256 7.05737 4.39167C7.3187 4.13079 7.63248 4.00012 7.9987 3.99967H8.66537C8.66537 3.74412 8.73492 3.51923 8.87403 3.32501C9.01314 3.13079 9.18248 2.97234 9.38203 2.84967C9.15981 2.79412 8.93492 2.74967 8.70737 2.71634C8.47981 2.68301 8.24359 2.66634 7.9987 2.66634C6.50981 2.66634 5.2487 3.18301 4.21537 4.21634C3.18203 5.24967 2.66537 6.51079 2.66537 7.99967H5.9987C6.73203 7.99967 7.35981 8.26079 7.88203 8.78301C8.40425 9.30523 8.66537 9.93301 8.66537 10.6663V11.333H6.66537V13.1663C6.88759 13.2219 7.10714 13.2637 7.32403 13.2917C7.54092 13.3197 7.76581 13.3335 7.9987 13.333Z" fill="#046C82"/>
</svg>
