<svg width="16" height="16" viewBox="0 0 16 16" fill="none" xmlns="http://www.w3.org/2000/svg">
<g id="globe">
<path id="Vector" d="M7.9987 14.6673C7.07648 14.6673 6.20981 14.4922 5.3987 14.142C4.58759 13.7918 3.88203 13.3169 3.28203 12.7173C2.68203 12.1178 2.20714 11.4122 1.85737 10.6006C1.50759 9.78909 1.33248 8.92243 1.33203 8.00065C1.33159 7.07887 1.5067 6.21221 1.85737 5.40065C2.20803 4.5891 2.68292 3.88354 3.28203 3.28398C3.88114 2.68443 4.5867 2.20954 5.3987 1.85932C6.2107 1.5091 7.07737 1.33398 7.9987 1.33398C8.92003 1.33398 9.7867 1.5091 10.5987 1.85932C11.4107 2.20954 12.1163 2.68443 12.7154 3.28398C13.3145 3.88354 13.7896 4.5891 14.1407 5.40065C14.4918 6.21221 14.6667 7.07887 14.6654 8.00065C14.664 8.92243 14.4889 9.78909 14.14 10.6006C13.7911 11.4122 13.3163 12.1178 12.7154 12.7173C12.1145 13.3169 11.4089 13.792 10.5987 14.1426C9.78848 14.4933 8.92181 14.6682 7.9987 14.6673ZM7.9987 13.334C9.48759 13.334 10.7487 12.8173 11.782 11.784C12.8154 10.7507 13.332 9.48954 13.332 8.00065C13.332 7.92287 13.3294 7.84221 13.324 7.75865C13.3187 7.6751 13.3158 7.60576 13.3154 7.55065C13.2598 7.87287 13.1098 8.13954 12.8654 8.35065C12.6209 8.56176 12.332 8.66732 11.9987 8.66732H10.6654C10.2987 8.66732 9.98492 8.53687 9.72403 8.27598C9.46314 8.0151 9.33248 7.7011 9.33203 7.33398V6.66732H6.66537V5.33398C6.66537 4.96732 6.79603 4.65354 7.05737 4.39265C7.3187 4.13176 7.63248 4.0011 7.9987 4.00065H8.66537C8.66537 3.7451 8.73492 3.52021 8.87403 3.32598C9.01314 3.13176 9.18248 2.97332 9.38203 2.85065C9.15981 2.7951 8.93492 2.75065 8.70737 2.71732C8.47981 2.68398 8.24359 2.66732 7.9987 2.66732C6.50981 2.66732 5.2487 3.18398 4.21537 4.21732C3.18203 5.25065 2.66537 6.51176 2.66537 8.00065H5.9987C6.73203 8.00065 7.35981 8.26176 7.88203 8.78398C8.40425 9.30621 8.66537 9.93398 8.66537 10.6673V11.334H6.66537V13.1673C6.88759 13.2229 7.10714 13.2647 7.32403 13.2927C7.54092 13.3207 7.76581 13.3344 7.9987 13.334Z" fill="#046C82"/>
</g>
</svg>
