<svg width="16" height="16" viewBox="0 0 16 16" fill="none" xmlns="http://www.w3.org/2000/svg">
<g id="image">
<path id="Vector" d="M13 2H3C2.46974 2.00058 1.96137 2.21148 1.58643 2.58643C1.21148 2.96137 1.00058 3.46974 1 4V12C1.00058 12.5303 1.21148 13.0386 1.58643 13.4136C1.96137 13.7885 2.46974 13.9994 3 14H13C13.5303 13.9994 14.0386 13.7885 14.4136 13.4136C14.7885 13.0386 14.9994 12.5303 15 12V4C14.9994 3.46974 14.7885 2.96137 14.4136 2.58643C14.0386 2.21148 13.5303 2.00058 13 2ZM10.5 4C10.7967 4 11.0867 4.08797 11.3334 4.2528C11.58 4.41762 11.7723 4.65189 11.8858 4.92597C11.9994 5.20006 12.0291 5.50166 11.9712 5.79264C11.9133 6.08361 11.7704 6.35088 11.5607 6.56066C11.3509 6.77044 11.0836 6.9133 10.7926 6.97118C10.5017 7.02906 10.2001 6.99935 9.92597 6.88582C9.65189 6.77229 9.41762 6.58003 9.2528 6.33336C9.08797 6.08668 9 5.79667 9 5.5C9.00041 5.1023 9.15858 4.72101 9.4398 4.4398C9.72101 4.15858 10.1023 4.00041 10.5 4ZM3 13C2.73478 13 2.48043 12.8946 2.29289 12.7071C2.10536 12.5196 2 12.2652 2 12V9.88656L4.96375 7.25219C5.2497 6.99858 5.62159 6.86354 6.00364 6.87457C6.38569 6.8856 6.74916 7.04188 7.02 7.31156L9.04969 9.33687L5.38656 13H3ZM14 12C14 12.2652 13.8946 12.5196 13.7071 12.7071C13.5196 12.8946 13.2652 13 13 13H6.80094L10.5953 9.20562C10.864 8.97717 11.2049 8.8513 11.5575 8.85039C11.9102 8.84947 12.2517 8.97356 12.5216 9.20063L14 10.4325V12Z" fill="#003E54"/>
</g>
</svg>
