<svg width="16" height="17" viewBox="0 0 16 17" fill="none" xmlns="http://www.w3.org/2000/svg">
    <path fill-rule="evenodd" clip-rule="evenodd"
        d="M6.14188 1.75279C6.72892 1.59023 7.34843 1.5049 8.00352 1.5C8.65049 1.5003 9.26835 1.58291 9.86001 1.7455C10.4569 1.90954 11.0077 2.1449 11.5156 2.45057C12.0378 2.76477 12.5151 3.13377 12.949 3.55842C13.3737 3.97411 13.7378 4.44193 14.0422 4.96434C14.3473 5.48806 14.5823 6.04646 14.7472 6.64188C14.9098 7.22892 14.9951 7.84844 15 8.50352C14.9997 9.15049 14.9171 9.76835 14.7545 10.36C14.5905 10.9569 14.3551 11.5077 14.0494 12.0156C13.7352 12.5378 13.3662 13.0151 12.9416 13.449C12.5259 13.8737 12.0581 14.2378 11.5357 14.5422C11.0119 14.8473 10.4535 15.0823 9.85812 15.2472C9.27108 15.4098 8.65156 15.4951 7.99648 15.5C7.34951 15.4997 6.73165 15.4171 6.13999 15.2545C5.54308 15.0905 4.99232 14.8551 4.48436 14.5494C3.96224 14.2352 3.48491 13.8662 3.05103 13.4416C2.6263 13.0259 2.26216 12.5581 1.9578 12.0357C1.65268 11.5119 1.41768 10.9535 1.25279 10.3581C1.09023 9.77108 1.0049 9.15156 1 8.49648C1.0003 7.84951 1.08291 7.23165 1.2455 6.63999C1.40954 6.04308 1.6449 5.49232 1.95057 4.98436C2.26477 4.46224 2.63377 3.98491 3.05842 3.55103C3.47411 3.1263 3.94193 2.76216 4.46434 2.4578C4.98806 2.15268 5.54646 1.91768 6.14188 1.75279ZM15.7109 6.375C15.8984 7.05208 15.9948 7.76042 16 8.5C16 9.23438 15.9062 9.94271 15.7188 10.625C15.5312 11.3073 15.2604 11.9427 14.9062 12.5312C14.5521 13.1198 14.1354 13.6589 13.6562 14.1484C13.1771 14.638 12.638 15.0573 12.0391 15.4062C11.4401 15.7552 10.8021 16.0234 10.125 16.2109C9.44792 16.3984 8.73958 16.4948 8 16.5C7.26562 16.5 6.55729 16.4062 5.875 16.2188C5.19271 16.0312 4.55729 15.7604 3.96875 15.4062C3.38021 15.0521 2.84115 14.6354 2.35156 14.1562C1.86198 13.6771 1.44271 13.138 1.09375 12.5391C0.744792 11.9401 0.476562 11.3021 0.289062 10.625C0.101562 9.94792 0.00520833 9.23958 0 8.5C0 7.76562 0.09375 7.05729 0.28125 6.375C0.46875 5.69271 0.739583 5.05729 1.09375 4.46875C1.44792 3.88021 1.86458 3.34115 2.34375 2.85156C2.82292 2.36198 3.36198 1.94271 3.96094 1.59375C4.5599 1.24479 5.19792 0.976562 5.875 0.789062C6.55208 0.601562 7.26042 0.505208 8 0.5C8.73438 0.5 9.44271 0.59375 10.125 0.78125C10.8073 0.96875 11.4427 1.23958 12.0312 1.59375C12.6198 1.94792 13.1589 2.36458 13.6484 2.84375C14.138 3.32292 14.5573 3.86198 14.9062 4.46094C15.2552 5.0599 15.5234 5.69792 15.7109 6.375ZM9 9.5V4.5H7V9.5H9ZM9 12.5V10.5H7V12.5H9Z"
        fill="#8E101C" />
</svg>
