<svg width="16" height="16" viewBox="0 0 16 16" fill="none" xmlns="http://www.w3.org/2000/svg">
<g clip-path="url(#clip0_40_13694)">
<path fill-rule="evenodd" clip-rule="evenodd" d="M6.14188 1.25279C6.72892 1.09023 7.34843 1.0049 8.00352 1C8.65049 1.0003 9.26835 1.08291 9.86001 1.2455C10.4569 1.40954 11.0077 1.6449 11.5156 1.95057C12.0378 2.26477 12.5151 2.63377 12.949 3.05842C13.3737 3.47411 13.7378 3.94193 14.0422 4.46434C14.3473 4.98806 14.5823 5.54646 14.7472 6.14188C14.9098 6.72892 14.9951 7.34844 15 8.00352C14.9997 8.65049 14.9171 9.26835 14.7545 9.86001C14.5905 10.4569 14.3551 11.0077 14.0494 11.5156C13.7352 12.0378 13.3662 12.5151 12.9416 12.949C12.5259 13.3737 12.0581 13.7378 11.5357 14.0422C11.0119 14.3473 10.4535 14.5823 9.85812 14.7472C9.27108 14.9098 8.65156 14.9951 7.99648 15C7.34951 14.9997 6.73165 14.9171 6.13999 14.7545C5.54308 14.5905 4.99232 14.3551 4.48436 14.0494C3.96224 13.7352 3.48491 13.3662 3.05103 12.9416C2.6263 12.5259 2.26216 12.0581 1.9578 11.5357C1.65268 11.0119 1.41768 10.4535 1.25279 9.85812C1.09023 9.27108 1.0049 8.65156 1 7.99648C1.0003 7.34951 1.08291 6.73165 1.2455 6.13999C1.40954 5.54308 1.6449 4.99232 1.95057 4.48436C2.26477 3.96224 2.63377 3.48491 3.05842 3.05103C3.47411 2.6263 3.94193 2.26216 4.46434 1.9578C4.98806 1.65268 5.54646 1.41768 6.14188 1.25279ZM15.7109 5.875C15.8984 6.55208 15.9948 7.26042 16 8C16 8.73438 15.9062 9.44271 15.7188 10.125C15.5312 10.8073 15.2604 11.4427 14.9062 12.0312C14.5521 12.6198 14.1354 13.1589 13.6562 13.6484C13.1771 14.138 12.638 14.5573 12.0391 14.9062C11.4401 15.2552 10.8021 15.5234 10.125 15.7109C9.44792 15.8984 8.73958 15.9948 8 16C7.26562 16 6.55729 15.9062 5.875 15.7188C5.19271 15.5312 4.55729 15.2604 3.96875 14.9062C3.38021 14.5521 2.84115 14.1354 2.35156 13.6562C1.86198 13.1771 1.44271 12.638 1.09375 12.0391C0.744792 11.4401 0.476562 10.8021 0.289062 10.125C0.101562 9.44792 0.00520833 8.73958 0 8C0 7.26562 0.09375 6.55729 0.28125 5.875C0.46875 5.19271 0.739583 4.55729 1.09375 3.96875C1.44792 3.38021 1.86458 2.84115 2.34375 2.35156C2.82292 1.86198 3.36198 1.44271 3.96094 1.09375C4.5599 0.744792 5.19792 0.476562 5.875 0.289062C6.55208 0.101562 7.26042 0.00520833 8 0C8.73438 0 9.44271 0.09375 10.125 0.28125C10.8073 0.46875 11.4427 0.739583 12.0312 1.09375C12.6198 1.44792 13.1589 1.86458 13.6484 2.34375C14.138 2.82292 14.5573 3.36198 14.9062 3.96094C15.2552 4.5599 15.5234 5.19792 15.7109 5.875ZM9 9V4H7V9H9ZM9 12V10H7V12H9Z" fill="#8E101C"/>
</g>
<defs>
<clipPath id="clip0_40_13694">
<rect width="16" height="16" fill="white"/>
</clipPath>
</defs>
</svg>
