<svg width="16" height="16" viewBox="0 0 16 16" fill="none"
     xmlns="http://www.w3.org/2000/svg">
    <g clip-path="url(#clip0_2766_94876)">
        <path d="M14.4947 7.7971C15.9072 6.36253 15.9072 4.03929 14.4947 2.60472C13.2447 1.33519 11.2747 1.17015 9.83719 2.21371L9.79719 2.24164C9.43719 2.50316 9.35469 3.01097 9.61219 3.37406C9.86969 3.73714 10.3697 3.82347 10.7272 3.56195L10.7672 3.53402C11.5697 2.95257 12.6672 3.04398 13.3622 3.75238C14.1497 4.55218 14.1497 5.8471 13.3622 6.64691L10.5572 9.50082C9.76969 10.3006 8.49469 10.3006 7.70719 9.50082C7.00969 8.79242 6.91969 7.67777 7.49219 6.86527L7.51969 6.82464C7.77719 6.45902 7.69219 5.95121 7.33469 5.69222C6.97719 5.43324 6.47469 5.51703 6.21969 5.88011L6.19219 5.92074C5.16219 7.37816 5.32469 9.37894 6.57469 10.6485C7.98719 12.083 10.2747 12.083 11.6872 10.6485L14.4947 7.7971ZM1.50469 7.20296C0.0921875 8.63753 0.0921875 10.9608 1.50469 12.3953C2.75469 13.6649 4.72469 13.8299 6.16219 12.7864L6.20219 12.7584C6.56219 12.4969 6.64469 11.9891 6.38719 11.626C6.12969 11.2629 5.62969 11.1766 5.27219 11.4381L5.23219 11.4661C4.42969 12.0475 3.33219 11.9561 2.63719 11.2477C1.84969 10.4453 1.84969 9.15042 2.63719 8.35062L5.44219 5.49925C6.22969 4.69945 7.50469 4.69945 8.29219 5.49925C8.98969 6.20765 9.07969 7.3223 8.50719 8.13734L8.47969 8.17796C8.22219 8.54359 8.30719 9.0514 8.66469 9.31039C9.02219 9.56937 9.52469 9.48558 9.77969 9.1225L9.80719 9.08187C10.8372 7.62191 10.6747 5.62113 9.42469 4.3516C8.01219 2.91703 5.72469 2.91703 4.31219 4.3516L1.50469 7.20296Z"
              fill="#003E54"/>
    </g>
    <defs>
        <clipPath id="clip0_2766_94876">
            <rect width="16" height="13" fill="white" transform="translate(0 1)"/>
        </clipPath>
    </defs>
</svg>
