<svg width="17" height="17" viewBox="0 0 17 17" fill="none" xmlns="http://www.w3.org/2000/svg">
<path d="M12.727 5.83044L13.5858 6.04407C14.2458 6.26407 14.5758 6.37407 14.7645 6.63607C14.9531 6.89807 14.9531 7.24607 14.9531 7.9414V11.7194C14.9531 12.5794 14.9531 13.0101 14.7265 13.2867C14.6498 13.3801 14.5565 13.4601 14.4511 13.5201C14.1411 13.6981 13.7165 13.6267 12.8678 13.4861C12.0305 13.3461 11.6118 13.2767 11.1965 13.3114C11.0502 13.3234 10.9058 13.345 10.7631 13.3761C10.3565 13.4654 9.97312 13.6567 9.20712 14.0401C8.20712 14.5401 7.70713 14.7901 7.17513 14.8667C7.01513 14.8898 6.85379 14.9014 6.69113 14.9014C6.15313 14.9001 5.62779 14.7247 4.57646 14.3747L4.32046 14.2894C3.66046 14.0694 3.33046 13.9594 3.14179 13.6974C2.95312 13.4354 2.95312 13.0867 2.95312 12.3921V9.1054C2.95312 7.9994 2.95312 7.44674 3.27846 7.1494C3.33546 7.09721 3.39833 7.05179 3.46579 7.01407C3.85113 6.7994 4.45085 6.7994 5.49952 7.1494" stroke="white"/>
<path fill-rule="evenodd" clip-rule="evenodd" d="M8.95312 1.8335C6.74379 1.8335 4.95312 3.53483 4.95312 5.6335C4.95312 7.71616 6.22979 10.1468 8.22179 11.0148C8.45264 11.1148 8.70155 11.1664 8.95312 11.1664C9.2047 11.1664 9.45361 11.1148 9.68446 11.0148C11.6765 10.1462 12.9531 7.71616 12.9531 5.6335C12.9531 3.53483 11.1625 1.8335 8.95312 1.8335ZM10.2865 5.83358C10.2865 6.56996 9.68959 7.16691 8.95321 7.16691C8.21683 7.16691 7.61987 6.56996 7.61987 5.83358C7.61987 5.0972 8.21683 4.50024 8.95321 4.50024C9.68959 4.50024 10.2865 5.0972 10.2865 5.83358Z" fill="white"/>
</svg>
