<svg width="16" height="16" viewBox="0 0 16 16" fill="none" xmlns="http://www.w3.org/2000/svg">
<g id="palette">
<path id="Vector" d="M15 8V8.07383C14.9891 9.07188 14.0813 9.75 13.0832 9.75H10.4062C9.68164 9.75 9.09375 10.3379 9.09375 11.0625C9.09375 11.1555 9.10469 11.2457 9.12109 11.3332C9.17852 11.6121 9.29883 11.8801 9.41641 12.1508C9.5832 12.5281 9.74727 12.9027 9.74727 13.2992C9.74727 14.1687 9.15664 14.959 8.28711 14.9945C8.19141 14.9973 8.0957 15 7.99727 15C4.13359 15 1 11.8664 1 8C1 4.13359 4.13359 1 8 1C11.8664 1 15 4.13359 15 8ZM4.5 8.875C4.5 8.64294 4.40781 8.42038 4.24372 8.25628C4.07962 8.09219 3.85706 8 3.625 8C3.39294 8 3.17038 8.09219 3.00628 8.25628C2.84219 8.42038 2.75 8.64294 2.75 8.875C2.75 9.10706 2.84219 9.32962 3.00628 9.49372C3.17038 9.65781 3.39294 9.75 3.625 9.75C3.85706 9.75 4.07962 9.65781 4.24372 9.49372C4.40781 9.32962 4.5 9.10706 4.5 8.875ZM4.5 6.25C4.73206 6.25 4.95462 6.15781 5.11872 5.99372C5.28281 5.82962 5.375 5.60706 5.375 5.375C5.375 5.14294 5.28281 4.92038 5.11872 4.75628C4.95462 4.59219 4.73206 4.5 4.5 4.5C4.26794 4.5 4.04538 4.59219 3.88128 4.75628C3.71719 4.92038 3.625 5.14294 3.625 5.375C3.625 5.60706 3.71719 5.82962 3.88128 5.99372C4.04538 6.15781 4.26794 6.25 4.5 6.25ZM8.875 3.625C8.875 3.39294 8.78281 3.17038 8.61872 3.00628C8.45462 2.84219 8.23206 2.75 8 2.75C7.76794 2.75 7.54538 2.84219 7.38128 3.00628C7.21719 3.17038 7.125 3.39294 7.125 3.625C7.125 3.85706 7.21719 4.07962 7.38128 4.24372C7.54538 4.40781 7.76794 4.5 8 4.5C8.23206 4.5 8.45462 4.40781 8.61872 4.24372C8.78281 4.07962 8.875 3.85706 8.875 3.625ZM11.5 6.25C11.7321 6.25 11.9546 6.15781 12.1187 5.99372C12.2828 5.82962 12.375 5.60706 12.375 5.375C12.375 5.14294 12.2828 4.92038 12.1187 4.75628C11.9546 4.59219 11.7321 4.5 11.5 4.5C11.2679 4.5 11.0454 4.59219 10.8813 4.75628C10.7172 4.92038 10.625 5.14294 10.625 5.375C10.625 5.60706 10.7172 5.82962 10.8813 5.99372C11.0454 6.15781 11.2679 6.25 11.5 6.25Z" fill="#003E54"/>
</g>
</svg>
