<svg width="17" height="16" viewBox="0 0 17 16" fill="none" xmlns="http://www.w3.org/2000/svg">
<g id="edit">
<path id="Vector" d="M14.584 13.0625H3.08398C2.80742 13.0625 2.58398 13.2859 2.58398 13.5625V14.125C2.58398 14.1938 2.64023 14.25 2.70898 14.25H14.959C15.0277 14.25 15.084 14.1938 15.084 14.125V13.5625C15.084 13.2859 14.8605 13.0625 14.584 13.0625ZM4.86055 11.75C4.8918 11.75 4.92305 11.7469 4.9543 11.7422L7.58242 11.2812C7.61367 11.275 7.64336 11.2609 7.66523 11.2375L14.2887 4.61406C14.3032 4.59961 14.3146 4.58244 14.3225 4.56354C14.3303 4.54463 14.3344 4.52437 14.3344 4.50391C14.3344 4.48344 14.3303 4.46318 14.3225 4.44428C14.3146 4.42538 14.3032 4.40821 14.2887 4.39375L11.6918 1.79531C11.6621 1.76563 11.623 1.75 11.5809 1.75C11.5387 1.75 11.4996 1.76563 11.4699 1.79531L4.84648 8.41875C4.82305 8.44219 4.80898 8.47031 4.80273 8.50156L4.3418 11.1297C4.3266 11.2134 4.33203 11.2995 4.35762 11.3807C4.38321 11.4618 4.42819 11.5355 4.48867 11.5953C4.5918 11.6953 4.72148 11.75 4.86055 11.75Z" fill="#046C82"/>
</g>
</svg>
