<svg width="17" height="17" viewBox="0 0 17 17" fill="none" xmlns="http://www.w3.org/2000/svg">
<path d="M14.082 13.5625H2.58203C2.30547 13.5625 2.08203 13.7859 2.08203 14.0625V14.625C2.08203 14.6938 2.13828 14.75 2.20703 14.75H14.457C14.5258 14.75 14.582 14.6938 14.582 14.625V14.0625C14.582 13.7859 14.3586 13.5625 14.082 13.5625ZM4.35859 12.25C4.38984 12.25 4.42109 12.2469 4.45234 12.2422L7.08047 11.7812C7.11172 11.775 7.14141 11.7609 7.16328 11.7375L13.7867 5.11406C13.8012 5.09961 13.8127 5.08244 13.8205 5.06354C13.8284 5.04463 13.8324 5.02437 13.8324 5.00391C13.8324 4.98344 13.8284 4.96318 13.8205 4.94428C13.8127 4.92538 13.8012 4.90821 13.7867 4.89375L11.1898 2.29531C11.1602 2.26563 11.1211 2.25 11.0789 2.25C11.0367 2.25 10.9977 2.26563 10.968 2.29531L4.34453 8.91875C4.32109 8.94219 4.30703 8.97031 4.30078 9.00156L3.83984 11.6297C3.82464 11.7134 3.83007 11.7995 3.85567 11.8807C3.88126 11.9618 3.92624 12.0355 3.98672 12.0953C4.08984 12.1953 4.21953 12.25 4.35859 12.25Z" fill="#414042"/>
</svg>
