<svg width="16" height="17" viewBox="0 0 16 17" fill="none" xmlns="http://www.w3.org/2000/svg">
<path d="M5.33203 14.5C4.96536 14.5 4.65159 14.3696 4.3907 14.1087C4.12981 13.8478 3.99914 13.5338 3.9987 13.1667V11.8333H2.66536C2.2987 11.8333 1.98492 11.7029 1.72403 11.442C1.46314 11.1811 1.33248 10.8671 1.33203 10.5V7.83333C1.33203 7.26667 1.52648 6.79178 1.91536 6.40867C2.30425 6.02556 2.77648 5.83378 3.33203 5.83333H12.6654C13.232 5.83333 13.7071 6.02511 14.0907 6.40867C14.4743 6.79222 14.6658 7.26711 14.6654 7.83333V10.5C14.6654 10.8667 14.5349 11.1807 14.274 11.442C14.0131 11.7033 13.6991 11.8338 13.332 11.8333H11.9987V13.1667C11.9987 13.5333 11.8683 13.8473 11.6074 14.1087C11.3465 14.37 11.0325 14.5004 10.6654 14.5H5.33203ZM11.9987 5.16667H3.9987V3.83333C3.9987 3.46667 4.12936 3.15289 4.3907 2.892C4.65203 2.63111 4.96581 2.50044 5.33203 2.5H10.6654C11.032 2.5 11.346 2.63067 11.6074 2.892C11.8687 3.15333 11.9991 3.46711 11.9987 3.83333V5.16667ZM11.9987 8.83333C12.1876 8.83333 12.346 8.76933 12.474 8.64133C12.602 8.51333 12.6658 8.35511 12.6654 8.16667C12.6649 7.97822 12.6009 7.82 12.4734 7.692C12.3458 7.564 12.1876 7.5 11.9987 7.5C11.8098 7.5 11.6516 7.564 11.524 7.692C11.3965 7.82 11.3325 7.97822 11.332 8.16667C11.3316 8.35511 11.3956 8.51356 11.524 8.642C11.6525 8.77044 11.8107 8.83422 11.9987 8.83333ZM5.33203 13.1667H10.6654V10.5H5.33203V13.1667Z" fill="#046C82"/>
</svg>
