<svg width="16" height="17" viewBox="0 0 16 17" fill="none" xmlns="http://www.w3.org/2000/svg">
<path fill-rule="evenodd" clip-rule="evenodd" d="M10.5139 11.3803C10.2776 11.464 9.60287 11.5566 8.18203 10.7946C6.64381 9.96875 6.41531 9.27853 6.38153 9.07147C6.40372 8.81997 6.38919 8.56928 6.34622 8.32472L6.35622 8.33925C6.35622 8.33925 6.23041 7.6675 7.99103 6.57469C9.56675 5.59632 10.2831 5.79103 10.4163 5.84247C10.5023 5.89997 10.5912 5.95435 10.6841 6.00422C10.8578 6.09668 11.0404 6.1712 11.2292 6.22663C11.4463 6.43372 11.845 7.0195 11.8864 8.56007C11.9292 10.1121 11.473 10.7102 11.2247 10.9218C10.9685 11.0376 10.7285 11.1925 10.5139 11.3803ZM13.8088 10.9962C13.7091 10.9432 13.6071 10.8981 13.5052 10.8582L13.578 10.8521C13.578 10.8521 12.9263 10.5638 12.8695 8.46882C12.8126 6.37306 13.4906 6.01582 13.4906 6.01582L13.3931 6.01953C13.9054 5.75728 14.3456 5.34172 14.6362 4.79422C15.3938 3.36944 14.8516 1.59978 13.4268 0.842034C12.0015 0.0853154 10.2324 0.62594 9.47547 2.0521C9.16434 2.63728 9.07522 3.27978 9.17337 3.88713L9.14037 3.83569C9.14037 3.83569 9.31215 4.59638 7.52931 5.70294C5.74728 6.81028 4.94306 6.25888 4.94306 6.25888L4.99428 6.33403C4.94381 6.30263 4.89475 6.27044 4.84097 6.24278C3.41541 5.48522 1.64575 6.02663 0.88878 7.45197C0.132061 8.87753 0.673468 10.6466 2.09803 11.4042C3.16081 11.9685 4.41381 11.8113 5.29637 11.1036L5.27734 11.1403C5.27734 11.1403 5.92594 10.6068 7.79631 11.6113C9.27228 12.4033 9.49156 13.1793 9.52003 13.4714C9.48097 14.5534 10.0453 15.6154 11.0667 16.1576C12.4915 16.9151 14.2611 16.3738 15.0181 14.9484C15.7756 13.5228 15.2342 11.753 13.8088 10.9962M10.3206 1.77235C9.47015 2.70241 9.4525 4.07122 10.2715 4.84485C9.86669 4.45541 9.87594 3.64328 10.2846 2.86653C10.3374 2.79744 10.4899 2.63253 10.7132 2.70772C10.7353 2.71538 10.75 2.71694 10.7585 2.71616C10.8089 2.72694 10.8604 2.73303 10.9142 2.73069C11.2522 2.71538 11.5145 2.42935 11.4992 2.09053C11.4923 1.9386 11.4295 1.80453 11.3319 1.70088C12.1171 1.18638 13.0189 1.12728 13.3886 1.46472L13.4023 1.4655C12.5588 0.695628 11.1794 0.832847 10.3206 1.77235ZM1.77212 7.27332C0.921749 8.20419 0.904092 9.57222 1.72306 10.3458C1.31828 9.95638 1.32672 9.14428 1.73619 8.3675C1.789 8.29782 1.94175 8.13372 2.16475 8.20891C2.18712 8.21657 2.20162 8.21813 2.21006 8.21735C2.26072 8.22794 2.31275 8.23422 2.36575 8.23188C2.70456 8.21657 2.96606 7.93053 2.95075 7.59153C2.94387 7.43978 2.88106 7.3055 2.78369 7.20207C3.5689 6.68832 4.4705 6.62847 4.84016 6.96591L4.85391 6.96728C4.00978 6.19678 2.63015 6.334 1.77212 7.27332ZM10.8213 11.931C9.9709 12.8611 9.95325 14.2299 10.7722 15.0043C10.3672 14.6141 10.3765 13.8019 10.7852 13.026C10.8382 12.9561 10.9907 12.792 11.2139 12.8664C11.2361 12.874 11.2506 12.8764 11.259 12.8748C11.3097 12.8856 11.3619 12.8917 11.4147 12.8901C11.7529 12.874 12.0152 12.5872 11.9999 12.2492C11.993 12.0973 11.93 11.9632 11.8326 11.8595C12.6178 11.3458 13.5189 11.2859 13.8885 11.6234L13.9022 11.6249C13.0595 10.8543 11.6793 10.9915 10.8213 11.931" fill="#046C82"/>
</svg>
