<svg width="16" height="17" viewBox="0 0 16 17" fill="none" xmlns="http://www.w3.org/2000/svg">
<path d="M14.25 3.49998V6.49998C14.25 6.6989 14.171 6.88966 14.0303 7.03031C13.8897 7.17097 13.6989 7.24998 13.5 7.24998H10.5C10.3011 7.24998 10.1103 7.17097 9.96967 7.03031C9.82902 6.88966 9.75 6.6989 9.75 6.49998C9.75 6.30107 9.82902 6.11031 9.96967 5.96965C10.1103 5.829 10.3011 5.74998 10.5 5.74998H11.6875L11.2 5.26248C10.3174 4.3755 9.11879 3.87511 7.8675 3.87123H7.84062C6.60051 3.86859 5.40921 4.35423 4.52437 5.22311C4.38215 5.36218 4.19051 5.43906 3.9916 5.43683C3.7927 5.43461 3.60282 5.35346 3.46375 5.21123C3.32468 5.06901 3.2478 4.87737 3.25002 4.67846C3.25225 4.47956 3.3334 4.28968 3.47563 4.15061C4.64076 3.00652 6.20957 2.36727 7.8425 2.37123H7.875C9.52234 2.37573 11.1005 3.03418 12.2625 4.20186L12.75 4.68748V3.49998C12.75 3.30107 12.829 3.11031 12.9697 2.96965C13.1103 2.829 13.3011 2.74998 13.5 2.74998C13.6989 2.74998 13.8897 2.829 14.0303 2.96965C14.171 3.11031 14.25 3.30107 14.25 3.49998ZM11.4756 11.7769C10.5903 12.6462 9.39826 13.1319 8.1575 13.1287H8.13062C6.87933 13.1249 5.68074 12.6245 4.79812 11.7375L4.3125 11.25H5.5C5.69891 11.25 5.88968 11.171 6.03033 11.0303C6.17098 10.8897 6.25 10.6989 6.25 10.5C6.25 10.3011 6.17098 10.1103 6.03033 9.96965C5.88968 9.829 5.69891 9.74998 5.5 9.74998H2.5C2.30109 9.74998 2.11032 9.829 1.96967 9.96965C1.82902 10.1103 1.75 10.3011 1.75 10.5V13.5C1.75 13.6989 1.82902 13.8897 1.96967 14.0303C2.11032 14.171 2.30109 14.25 2.5 14.25C2.69891 14.25 2.88968 14.171 3.03033 14.0303C3.17098 13.8897 3.25 13.6989 3.25 13.5V12.3125L3.7375 12.8C4.89983 13.967 6.47793 14.6247 8.125 14.6287H8.16C9.79293 14.6327 11.3617 13.9934 12.5269 12.8494C12.5973 12.7805 12.6535 12.6984 12.6922 12.6079C12.7309 12.5173 12.7514 12.42 12.7525 12.3215C12.7536 12.223 12.7353 12.1253 12.6986 12.0339C12.6619 11.9424 12.6076 11.8592 12.5387 11.7887C12.4699 11.7183 12.3878 11.6621 12.2973 11.6234C12.2067 11.5847 12.1094 11.5642 12.0109 11.5631C11.9124 11.562 11.8147 11.5803 11.7233 11.617C11.6318 11.6537 11.5485 11.708 11.4781 11.7769H11.4756Z" fill="#046C82"/>
</svg>
