<svg width="16" height="17" viewBox="0 0 16 17" fill="none" xmlns="http://www.w3.org/2000/svg">
<g clip-path="url(#clip0_2096_29339)">
<path d="M13.0006 6.99905C13.0006 8.43321 12.535 9.75802 11.7506 10.8329L15.707 14.7917C16.0977 15.1822 16.0977 15.8165 15.707 16.2071C15.3164 16.5976 14.682 16.5976 14.2913 16.2071L10.3349 12.2483C9.25983 13.0357 7.93476 13.4981 6.50032 13.4981C2.90952 13.4981 0 10.5891 0 6.99905C0 3.40895 2.90952 0.5 6.50032 0.5C10.0911 0.5 13.0006 3.40895 13.0006 6.99905ZM6.50032 11.4984C7.09129 11.4984 7.67649 11.382 8.22248 11.1559C8.76847 10.9298 9.26457 10.5984 9.68245 10.1806C10.1003 9.76276 10.4318 9.26676 10.658 8.72087C10.8841 8.17499 11.0005 7.58991 11.0005 6.99905C11.0005 6.40819 10.8841 5.82311 10.658 5.27722C10.4318 4.73134 10.1003 4.23534 9.68245 3.81753C9.26457 3.39973 8.76847 3.06831 8.22248 2.8422C7.67649 2.61609 7.09129 2.49971 6.50032 2.49971C5.90934 2.49971 5.32415 2.61609 4.77816 2.8422C4.23217 3.06831 3.73607 3.39973 3.31818 3.81753C2.9003 4.23534 2.56881 4.73134 2.34266 5.27722C2.1165 5.82311 2.0001 6.40819 2.0001 6.99905C2.0001 7.58991 2.1165 8.17499 2.34266 8.72087C2.56881 9.26676 2.9003 9.76276 3.31818 10.1806C3.73607 10.5984 4.23217 10.9298 4.77816 11.1559C5.32415 11.382 5.90934 11.4984 6.50032 11.4984Z" fill="#92C3CB"/>
</g>
<defs>
<clipPath id="clip0_2096_29339">
<rect width="16" height="16" fill="white" transform="translate(0 0.5)"/>
</clipPath>
</defs>
</svg>
