<svg width="16" height="17" viewBox="0 0 16 17" fill="none" xmlns="http://www.w3.org/2000/svg">
<path d="M9.58203 2.5755C9.26758 2.7121 9.0625 3.02013 9.0625 3.35761V5.07183H6C3.34219 5.07183 1.1875 7.18245 1.1875 9.78591C1.1875 12.8206 3.41602 14.1759 3.92734 14.4491C3.9957 14.4866 4.07227 14.5 4.14883 14.5C4.44688 14.5 4.6875 14.2616 4.6875 13.9723C4.6875 13.7715 4.56992 13.5866 4.41953 13.45C4.1625 13.2117 3.8125 12.7429 3.8125 11.9287C3.8125 10.5091 4.98828 9.35736 6.4375 9.35736H9.0625V11.0716C9.0625 11.4091 9.26484 11.7171 9.58203 11.8537C9.89922 11.9903 10.2656 11.934 10.5227 11.709L14.8977 7.85207C15.0809 7.68868 15.1875 7.45833 15.1875 7.21459C15.1875 6.97085 15.0836 6.7405 14.8977 6.57712L10.5227 2.72014C10.3973 2.60892 10.2415 2.53599 10.0744 2.51029C9.90728 2.4846 9.73616 2.50726 9.58203 2.5755Z" fill="#046C82"/>
</svg>
