<svg width="16" height="17" viewBox="0 0 16 17" fill="none" xmlns="http://www.w3.org/2000/svg">
<path d="M2.74306 5H2.24306V5.5V8.5V9H2.74306H7.40972H7.90972V8.5V5.5V5H7.40972H2.74306ZM1.99018 13.7007L1.64311 14.0607L1.99018 13.7007C1.79412 13.5117 1.6875 13.2592 1.6875 13V4C1.6875 3.74077 1.79412 3.48832 1.99018 3.29926C2.18685 3.10961 2.45736 3 2.74306 3H13.6319C13.9176 3 14.1881 3.10961 14.3848 3.29926C14.5809 3.48832 14.6875 3.74077 14.6875 4V13C14.6875 13.2592 14.5809 13.5117 14.3848 13.7007C14.1881 13.8904 13.9176 14 13.6319 14H2.74306C2.45736 14 2.18685 13.8904 1.99018 13.7007ZM8.96528 5H8.46528V5.5V8.5V9H8.96528H13.6319H14.1319V8.5V5.5V5H13.6319H8.96528ZM2.74306 9.5H2.24306V10V13V13.5H2.74306H7.40972H7.90972V13V10V9.5H7.40972H2.74306ZM8.96528 9.5H8.46528V10V13V13.5H8.96528H13.6319H14.1319V13V10V9.5H13.6319H8.96528Z" fill="#046C82" stroke="#046C82"/>
</svg>
