<svg width="16" height="16" viewBox="0 0 16 16" fill="none" xmlns="http://www.w3.org/2000/svg">
    <path d="M7.33464 13.3337H4.33464C3.32352 13.3337 2.45975 12.9837 1.7433 12.2837C1.02686 11.5837 0.668413 10.7281 0.667969 9.71699C0.667969 8.85033 0.92908 8.0781 1.4513 7.40033C1.97352 6.72255 2.65686 6.28921 3.5013 6.10033C3.77908 5.0781 4.33464 4.25033 5.16797 3.61699C6.0013 2.98366 6.94575 2.66699 8.0013 2.66699C9.3013 2.66699 10.4042 3.11988 11.31 4.02566C12.2157 4.93144 12.6684 6.0341 12.668 7.33366C13.4346 7.42255 14.0709 7.75321 14.5766 8.32566C15.0824 8.8981 15.3351 9.56744 15.3346 10.3337C15.3346 11.167 15.0431 11.8754 14.46 12.459C13.8769 13.0425 13.1684 13.3341 12.3346 13.3337H8.66797V8.56699L9.73464 9.60033L10.668 8.66699L8.0013 6.00033L5.33464 8.66699L6.26797 9.60033L7.33464 8.56699V13.3337Z" fill="#046C82"/>
</svg>
