<svg width="16" height="16" viewBox="0 0 16 16" fill="none" xmlns="http://www.w3.org/2000/svg">
<g id="upload">
<path id="Vector" d="M7.33464 13.3327H4.33464C3.32352 13.3327 2.45975 12.9827 1.7433 12.2827C1.02686 11.5827 0.668413 10.7271 0.667969 9.71602C0.667969 8.84935 0.92908 8.07713 1.4513 7.39935C1.97352 6.72157 2.65686 6.28824 3.5013 6.09935C3.77908 5.07713 4.33464 4.24935 5.16797 3.61602C6.0013 2.98268 6.94575 2.66602 8.0013 2.66602C9.3013 2.66602 10.4042 3.1189 11.31 4.02468C12.2157 4.93046 12.6684 6.03313 12.668 7.33268C13.4346 7.42157 14.0709 7.75224 14.5766 8.32468C15.0824 8.89713 15.3351 9.56646 15.3346 10.3327C15.3346 11.166 15.0431 11.8745 14.46 12.458C13.8769 13.0416 13.1684 13.3331 12.3346 13.3327H8.66797V8.56602L9.73464 9.59935L10.668 8.66602L8.0013 5.99935L5.33464 8.66602L6.26797 9.59935L7.33464 8.56602V13.3327Z" fill="#046C82"/>
</g>
</svg>
