<svg width="12" height="14" viewBox="0 0 12 14" fill="none" xmlns="http://www.w3.org/2000/svg">
<path fill-rule="evenodd" clip-rule="evenodd" d="M1.86652 0.509766C1.55331 0.509766 1.25292 0.63419 1.03145 0.855666C0.809971 1.07714 0.685547 1.37753 0.685547 1.69074V12.3195C0.685547 12.6327 0.809971 12.9331 1.03145 13.1546C1.25292 13.3761 1.55331 13.5005 1.86652 13.5005H10.1333C10.4466 13.5005 10.7469 13.3761 10.9684 13.1546C11.1899 12.9331 11.3143 12.6327 11.3143 12.3195V4.05269C11.3144 3.97512 11.2992 3.89831 11.2695 3.82662C11.2399 3.75494 11.1964 3.6898 11.1416 3.63492L8.18917 0.682484C8.13429 0.627666 8.06915 0.584198 7.99746 0.554563C7.92578 0.524927 7.84896 0.509705 7.7714 0.509766H1.86652ZM4.22847 9.09519H7.7714C7.928 9.09519 8.0782 9.03298 8.18893 8.92224C8.29967 8.8115 8.36188 8.66131 8.36188 8.5047C8.36188 8.34809 8.29967 8.1979 8.18893 8.08716C8.0782 7.97642 7.928 7.91421 7.7714 7.91421H4.22847C4.07186 7.91421 3.92167 7.97642 3.81093 8.08716C3.7002 8.1979 3.63798 8.34809 3.63798 8.5047C3.63798 8.66131 3.7002 8.8115 3.81093 8.92224C3.92167 9.03298 4.07186 9.09519 4.22847 9.09519ZM4.22847 6.73324H7.7714C7.928 6.73324 8.0782 6.67103 8.18893 6.56029C8.29967 6.44955 8.36188 6.29936 8.36188 6.14275C8.36188 5.98614 8.29967 5.83595 8.18893 5.72521C8.0782 5.61447 7.928 5.55226 7.7714 5.55226H4.22847C4.07186 5.55226 3.92167 5.61447 3.81093 5.72521C3.7002 5.83595 3.63798 5.98614 3.63798 6.14275C3.63798 6.29936 3.7002 6.44955 3.81093 6.56029C3.92167 6.67103 4.07186 6.73324 4.22847 6.73324Z" fill="#414042"/>
</svg>
