<svg width="24" height="24" viewBox="0 0 24 24" fill="none" xmlns="http://www.w3.org/2000/svg">
<g id="move">
<path id="Vector" d="M6.75 3.75C6.75 2.92157 7.42157 2.25 8.25 2.25C9.07843 2.25 9.75 2.92157 9.75 3.75C9.75 4.57843 9.07843 5.25 8.25 5.25C7.42157 5.25 6.75 4.57843 6.75 3.75ZM14.25 3.75C14.25 2.92157 14.9216 2.25 15.75 2.25C16.5784 2.25 17.25 2.92157 17.25 3.75C17.25 4.57843 16.5784 5.25 15.75 5.25C14.9216 5.25 14.25 4.57843 14.25 3.75ZM6.75 9.25C6.75 8.42157 7.42157 7.75 8.25 7.75C9.07843 7.75 9.75 8.42157 9.75 9.25C9.75 10.0784 9.07843 10.75 8.25 10.75C7.42157 10.75 6.75 10.0784 6.75 9.25ZM14.25 9.25C14.25 8.42157 14.9216 7.75 15.75 7.75C16.5784 7.75 17.25 8.42157 17.25 9.25C17.25 10.0784 16.5784 10.75 15.75 10.75C14.9216 10.75 14.25 10.0784 14.25 9.25ZM6.75 14.75C6.75 13.9216 7.42157 13.25 8.25 13.25C9.07843 13.25 9.75 13.9216 9.75 14.75C9.75 15.5784 9.07843 16.25 8.25 16.25C7.42157 16.25 6.75 15.5784 6.75 14.75ZM14.25 14.75C14.25 13.9216 14.9216 13.25 15.75 13.25C16.5784 13.25 17.25 13.9216 17.25 14.75C17.25 15.5784 16.5784 16.25 15.75 16.25C14.9216 16.25 14.25 15.5784 14.25 14.75ZM6.75 20.25C6.75 19.4216 7.42157 18.75 8.25 18.75C9.07843 18.75 9.75 19.4216 9.75 20.25C9.75 21.0784 9.07843 21.75 8.25 21.75C7.42157 21.75 6.75 21.0784 6.75 20.25ZM14.25 20.25C14.25 19.4216 14.9216 18.75 15.75 18.75C16.5784 18.75 17.25 19.4216 17.25 20.25C17.25 21.0784 16.5784 21.75 15.75 21.75C14.9216 21.75 14.25 21.0784 14.25 20.25Z" fill="#CCCCCC"/>
</g>
</svg>
