<svg xmlns="http://www.w3.org/2000/svg" width="16" height="16" viewBox="0 0 16 16" fill="none">
  <g clip-path="url(#clip0_2838_99709)">
    <path d="M7.99932 1.37758L8.5365 0.874255L7.99932 0.301758L7.46215 0.874255L7.99932 1.37758ZM7.26347 5.79273C7.26347 5.98789 7.34099 6.17506 7.47899 6.31306C7.61699 6.45106 7.80416 6.52859 7.99932 6.52859C8.19449 6.52859 8.38165 6.45106 8.51965 6.31306C8.65765 6.17506 8.73518 5.98789 8.73518 5.79273H7.26347ZM10.7441 3.229L8.5365 0.874255L7.46215 1.88091L9.66972 4.23565L10.7441 3.229ZM7.46215 0.874255L5.25458 3.229L6.32893 4.23565L8.5365 1.88091L7.46215 0.874255ZM7.26347 1.37758V5.79273H8.73518V1.37758H7.26347ZM14.622 8.0003L15.1254 8.53748L15.6979 8.0003L15.1254 7.46313L14.622 8.0003ZM10.2069 7.26444C10.0117 7.26444 9.82457 7.34197 9.68657 7.47997C9.54857 7.61797 9.47104 7.80514 9.47104 8.0003C9.47104 8.19546 9.54857 8.38263 9.68657 8.52063C9.82457 8.65863 10.0117 8.73616 10.2069 8.73616V7.26444ZM12.7706 10.7451L15.1254 8.53748L14.1187 7.46313L11.764 9.6707L12.7706 10.7451ZM15.1254 7.46313L12.7706 5.25555L11.764 6.3299L14.1187 8.53748L15.1254 7.46313ZM14.622 7.26444H10.2069V8.73616H14.622V7.26444ZM7.99932 14.623L8.5365 15.1263L7.99932 15.6988L7.46215 15.1263L7.99932 14.623ZM7.26347 10.2079C7.26347 10.0127 7.34099 9.82554 7.47899 9.68754C7.61699 9.54954 7.80416 9.47202 7.99932 9.47202C8.19449 9.47202 8.38165 9.54954 8.51965 9.68754C8.65765 9.82554 8.73518 10.0127 8.73518 10.2079H7.26347ZM10.7441 12.7716L8.5365 15.1263L7.46215 14.1197L9.66972 11.7649L10.7441 12.7716ZM7.46215 15.1263L5.25458 12.7716L6.32893 11.7649L8.5365 14.1197L7.46215 15.1263ZM7.26347 14.623V10.2079H8.73518V14.623H7.26347ZM1.37661 8.0003L0.873279 8.53748L0.300781 8.0003L0.873279 7.46313L1.37661 8.0003ZM5.79175 7.26444C5.98691 7.26444 6.17408 7.34197 6.31208 7.47997C6.45008 7.61797 6.52761 7.80514 6.52761 8.0003C6.52761 8.19546 6.45008 8.38263 6.31208 8.52063C6.17408 8.65863 5.98691 8.73616 5.79175 8.73616V7.26444ZM3.22802 10.7451L0.873279 8.53748L1.87993 7.46313L4.23468 9.6707L3.22802 10.7451ZM0.873279 7.46313L3.22802 5.25555L4.23468 6.3299L1.87993 8.53748L0.873279 7.46313ZM1.37661 7.26444H5.79175V8.73616H1.37661V7.26444Z" fill="#046C82"/>
  </g>
  <defs>
    <clipPath id="clip0_2838_99709">
      <rect width="16" height="16" fill="white"/>
    </clipPath>
  </defs>
</svg>
